<svg xmlns="http://www.w3.org/2000/svg" width="200" height="200" viewBox="0 0 200 200"><path fill="#FFF" stroke="#1A1413" stroke-width="4.142" stroke-miterlimit="10" d="M66 144.74L38.257 96.69 66 48.635h55.486l27.744 48.053-27.744 48.053z"/><path d="M85.936 80.42h-3.823V65.794c-.754.335-1.59.502-2.456.502-.893 0-1.73-.167-2.484-.502V80.42H73.35V60.017h3.823c0 1.34 1.116 2.456 2.484 2.456 1.34 0 2.456-1.116 2.456-2.456h3.823v20.4zm12.057-20.402h3.292l-10.353 20.4h-3.32l10.38-20.4zm17.527 0v14.4c0 3.46-2.818 6.28-6.28 6.28-3.376 0-6.306-2.65-6.306-5.973V60.018h3.822v14.4c0 1.368 1.117 2.456 2.484 2.456 1.34 0 2.457-1.088 2.457-2.456v-14.4h3.823zM64.836 98.11c-3.433 0-6.25-2.817-6.25-6.278 0-3.46 2.817-6.28 6.25-6.28 3.46 0 6.28 2.82 6.28 6.28 0 3.46-2.82 6.28-6.28 6.28zm-5.972 3.853h11.973v3.46H58.864v-3.46zm6-7.647c1.312 0 2.428-1.06 2.428-2.484 0-1.367-1.116-2.483-2.428-2.483-1.34 0-2.456 1.085-2.456 2.51 0 1.366 1.116 2.454 2.456 2.454zM83.2 85.86h3.294l-10.354 20.4h-3.32l10.38-20.4zm11.25 7.87c1.338 0 2.455-1.09 2.455-2.456V85.86h3.823v5.246c0 1.76-.837 3.377-2.177 4.52 1.34 1.062 2.18 2.568 2.18 4.215v6.42h-3.823v-6.42c0-1.364-1.117-2.453-2.456-2.453h-2.484v8.875H88.14v-20.4h3.853v7.87h2.456zm18.335-7.87h3.293l-10.354 20.4h-3.32l10.38-20.4zm11.248 7.87c1.34 0 2.457-1.09 2.457-2.456V85.86h3.822v5.246c0 1.76-.836 3.377-2.176 4.52 1.34 1.062 2.176 2.568 2.176 4.215v6.42h-3.822v-6.42c0-1.364-1.117-2.453-2.457-2.453h-2.484v8.875h-3.825v-20.4h3.852v7.87h2.453zm-38.097 38.374h-3.823v-8.847c-.754.307-1.59.446-2.456.446-.893 0-1.73-.195-2.484-.502v8.905H73.35V117.76c0-3.488 2.818-6.363 6.307-6.363 3.46 0 6.28 2.875 6.28 6.363v14.344zm-3.824-14.54c0-1.368-1.117-2.484-2.456-2.484-1.368 0-2.484 1.116-2.484 2.484 0 1.367 1.116 2.456 2.484 2.456 1.34 0 2.456-1.088 2.456-2.456zm15.88-5.86h3.293l-10.353 20.4h-3.32l10.38-20.4zm17.528 20.4h-3.822v-8.847c-.754.307-1.592.446-2.457.446-.89 0-1.73-.195-2.48-.502v8.905h-3.823V117.76c0-3.488 2.818-6.363 6.307-6.363 3.46 0 6.28 2.875 6.28 6.363v14.344zm-3.823-14.54c0-1.368-1.117-2.484-2.457-2.484-1.367 0-2.484 1.116-2.484 2.484 0 1.367 1.117 2.456 2.484 2.456 1.34 0 2.457-1.088 2.457-2.456z" fill="#1A1413"/><path fill="none" stroke="#000" stroke-width="2.071" stroke-miterlimit="10" d="M121.486 144.74l12.426 6.906"/><path fill="none" stroke="#1A1413" stroke-width="2.071" stroke-miterlimit="10" d="M73.927 144.74l12.426 6.906m-4.5-6.906l12.428 6.906m-4.5-6.906l12.428 6.906m-4.5-6.906l12.426 6.906m-4.5-6.906l12.426 6.906m-4.5-6.906l12.426 6.906"/><path fill="none" stroke="#1A1413" stroke-width="4.142" stroke-miterlimit="10" d="M133.912 151.646l-12.426-6.905"/><path fill="none" stroke="#1A1413" stroke-width="2.761" stroke-miterlimit="10" d="M124.262 139.937l12.426 6.903m-9.653-11.71l12.426 6.905m-9.65-11.71l12.427 6.905m-9.652-11.71l12.426 6.904m-9.652-11.708l12.428 6.903m-9.652-11.71l12.428 6.903m-9.654-11.71l12.426 6.906m-9.652-11.71l12.43 6.902m-9.655-11.71l12.426 6.905"/><path fill="none" stroke="#1A1413" stroke-width="4.142" stroke-miterlimit="10" d="M149.23 96.688l12.426 6.905"/><path d="M145.297 89.37l12.426 6.904M141.46 82.686l12.425 6.905m-16.263-13.586l12.427 6.905m-16.267-13.59l12.427 6.905m-16.263-13.59l12.427 6.907m-16.264-13.59l12.427 6.906" fill="none" stroke="#1A1413" stroke-width="2.071" stroke-miterlimit="10"/><path fill="none" stroke="#1A1413" stroke-width="4.142" stroke-miterlimit="10" d="M65.784 144.995l11.952 6.65h56.24l27.765-48.052L134.67 56.92l-.756-1.38-12.272-7.186"/></svg>