<svg xmlns="http://www.w3.org/2000/svg" width="110.602" height="105" viewBox="0 0 110.602 105"><title>Slice 1</title><path fill="#4D9BC7" d="M72.875 70.666v.668c0 2.61 2.02 4.614 4.78 4.614 2.698 0 4.72-2.007 4.72-4.614v-.668c0-2.61-2.02-4.614-4.72-4.614-2.758-.002-4.78 2.005-4.78 4.614zm-20.75 5.58c11.2-.066 18-4.733 18-13.72 0-7.02-4.066-10.576-10.03-12.602 3.782-1.955 7.39-4.954 7.39-11.036 0-3.547-.912-6.69-3.166-8.934-2.91-2.896-7.91-4.204-13.728-4.204H30.237c-1.453 0-2.11.656-2.11 2.102v46.296c0 1.446.658 2.102 2.11 2.102l21.888-.003z"/></svg>