<svg xmlns="http://www.w3.org/2000/svg" viewBox="0 0 1000 1000"><g fill="#C74235"><path d="M696.6 419.8l25.4-31.2-42.5-34.5-25.4 31.2 6.4-39.7-54.1-8.7-6.4 39.7-14.3-37.6-51.2 19.5 50.8 133c5.4 14.1 21.2 21.2 35.3 15.8l133-50.8-19.5-51.2-37.5 14.5zm-16.4-58l34 27.6-27.9 34.3-81.8 31.2 75.7-93.1zm-69.3-18.6l43.3 6.9-7 43.6-55.2 67.9 18.9-118.4zm-69.3 18.5l40.9-15.6 15.8 41.3-13.9 86.5-42.8-112.2zm77.1 140.6c-11.3 4.3-24-1.4-28.3-12.7-1.3-3.5-1.7-7.2-1.2-10.7l.2-1c.6-3.5 2.1-6.8 4.3-9.7l.8-1c2.3-2.6 5.2-4.7 8.6-6L731 412.6l15.6 40.9-127.9 48.8zm0 0"/><path d="M606 469c-7.1 2.7-10.6 10.6-7.9 17.7 2.7 7.1 10.6 10.6 17.7 7.9 7.1-2.7 10.6-10.6 7.9-17.7-2.7-7-10.7-10.6-17.7-7.9zm7.8 20.5c-4.2 1.6-9-.5-10.6-4.7-1.6-4.2.5-9 4.7-10.6s9 .5 10.6 4.7c1.7 4.2-.5 9-4.7 10.6zm0 0M548.08 386.057l45.033-17.183 1.782 4.671-45.033 17.184zM559.092 414.934l39.614-15.115 1.783 4.671-39.615 15.116zM571.559 444.049l21.488-8.2 1.783 4.672-21.489 8.2zM604.607 368.934l47.588 7.664-.795 4.936-47.588-7.664z"/><path d="M599.526 399.366l41.108 7.014-.841 4.929-41.108-7.014zM596.483 431.014l20.265 3.101-.757 4.943-20.264-3.102zM663 380.249l37.397 30.404-3.154 3.88-37.398-30.405z"/><path d="M642.248 405.904l29.674 23.738-3.123 3.905-29.674-23.739zM622.593 430.322L638.32 443l-3.138 3.892-15.726-12.677zM699.575 423.767l4.672-1.782 17.183 45.033-4.671 1.782zM670.667 434.811l4.671-1.783 16.4 42.978-4.672 1.783zM641.03 445.836l4.671-1.783 16.649 43.632-4.672 1.783zM564 617.9c-1.2 0-2.6-.6-3.2-1.4-.3-.4-.6-1.1-.3-2.4 1.9-6.9 5.1-13.6 8.1-20.1 5.4-11.4 11-23.3 10.8-37.3-.2-11.4-3.9-21.9-11-31.4l-.2-.2-22.4-23.9-13.5-20.8-2.4-3.7-4.1 1.6c-4.7 1.9-9.7 2.8-14.9 2.8-13.9 0-26.7-6.9-34.2-18.5l-4.4-7c-1.7-3.2.3-4.9 1-5.3l11.9-7.7-15.8-24.4c-1.1-1.7-.6-4.1 1.1-5.2.6-.4 1.3-.6 2-.6 1.3 0 2.4.6 3.1 1.7l15.8 24.4 25.7-16.6-15.8-24.5c-.6-.9-.7-1.8-.5-2.8.2-1 .8-1.8 1.6-2.3.6-.4 1.3-.6 2.1-.6 1.3 0 2.4.6 3.1 1.7l15.8 24.4 11.9-7.7c.6-.4 1.3-.6 2-.6 1.3 0 2.4.6 3.1 1.7l4.6 7.2c5.9 9.1 7.9 20 5.7 30.6-1.7 7.9-5.6 15-11.3 20.6l-3.2 3.1 15.9 24.6c.2.5.5.9.8 1.3 2.6 3 5.4 6 8.1 8.9 4.1 4.4 8.4 9 11.9 13.6 7 9 10.8 17.8 12.2 27.7 1.7 12 .4 23.8-3.6 33.3-1.7 4-3.6 7.9-5.5 11.7-3.4 6.9-7 14-9.3 22.1-.2.9-.8 2-2.7 2zm-83.5-163.4l2.5 4.1c6.1 9.5 16.6 15.1 27.9 15.1 6.4 0 12.7-1.9 18.1-5.4 7.4-4.8 12.6-12.3 14.4-21 1.8-8.7.2-17.6-4.6-25l-2.5-4.1-55.8 36.3z"/><path d="M485.3 615.9c-.7-5.4-4.2-12.9-10.1-21.5l-.1-.1-.1-.1c-2.2-2.4-4.4-4.9-6-8-.1-.3-.2-.4-.3-.5-.1-.2-.2-.3-.3-.4v-.2c-4.2-7.2-6.4-15.5-6.4-23.8 0-26.5 21.6-48.1 48.1-48.1h.4c26.3 0 47.7 21.5 47.7 47.9 0 8-2.1 16.2-6.2 23.5l-.1.2-.1.2c-.1.4-.3.7-.6 1.1l-.1.1-.4.6c-1.7 2.6-3.3 4.9-5.2 6.8l-.1.1-.1.1c-6.9 9.6-10.6 18-10.7 23.8l-49.3-1.7zm43.2-.8l.4-1.8c1.6-8.1 7.2-17.2 11.6-23.3l.1-.2.1-.1.2-.1.2-.2c1.7-1.7 3.3-3.9 4.6-6.2l.1-.2.1-.2.1-.2.1-.2.2-.3c3.7-6.1 5.6-13.3 5.6-20.9 0-23-18.7-41.7-41.7-41.7s-41.7 18.7-41.7 41.7c0 7.2 2 14.5 5.7 21v.2l.4.6c1.6 2.5 3.4 4.9 5.3 7l.1.1.3.3c6.2 8.9 10 16.6 11.3 22.9l.4 1.8h36.5z"/><path d="M518.1 619.6c-1.4 0-2.4-.9-2.4-2.4v-42.1h-10.9v42.1c0 1.4-.9 2.4-2.4 2.4-1.4 0-2.4-.9-2.4-2.4v-42.1h-5.5c-5.6 0-10.2-4.6-10.2-10.2s4.6-10.2 10.2-10.2 10.2 4.6 10.2 10.2v5.5h10.9v-5.5c0-5.6 4.6-10.2 10.2-10.2s10.2 4.6 10.2 10.2-4.6 10.2-10.2 10.2h-5.5v42.1c.1 1.5-.8 2.4-2.2 2.4zm7.8-49.2c3 0 5.5-2.5 5.5-5.5s-2.5-5.5-5.5-5.5-5.5 2.5-5.5 5.5v5.5h5.5zm-31.4-10.9c-3 0-5.5 2.5-5.5 5.5s2.5 5.5 5.5 5.5h5.5V565c0-3.1-2.5-5.5-5.5-5.5z"/><path d="M518.1 618.7c-.9 0-1.5-.5-1.5-1.5v-43h-12.8v43c0 .9-.5 1.5-1.5 1.5-.9 0-1.5-.5-1.5-1.5v-43h-6.4c-5.1 0-9.3-4.2-9.3-9.3 0-5.1 4.2-9.3 9.3-9.3 5.1 0 9.3 4.2 9.3 9.3v6.4h12.8v-6.4c0-5.1 4.2-9.3 9.3-9.3 5.1 0 9.3 4.2 9.3 9.3 0 5.1-4.2 9.3-9.3 9.3h-6.4v43c.1 1-.4 1.5-1.3 1.5zm7.8-60.1c-3.5 0-6.4 2.9-6.4 6.4v6.4h6.4c3.5 0 6.4-2.9 6.4-6.4 0-3.6-2.9-6.4-6.4-6.4zm-31.4 0c-3.5 0-6.4 2.9-6.4 6.4 0 3.5 2.9 6.4 6.4 6.4h6.4V565c0-3.6-2.9-6.4-6.4-6.4z"/><path d="M518.1 618.5c-.2 0-.6 0-.8-.2l-.1-.1-.1-.1c-.2-.3-.2-.6-.2-.8V574h-13.2v43.2c0 .2 0 .6-.3.9l-.1.1-.1.1c-.3.2-.6.2-.8.2-.2 0-.6 0-.8-.2l-.1-.1-.1-.1c-.2-.3-.2-.6-.2-.8V574h-6.6c-5 0-9.1-4.1-9.1-9.1s4.1-9.1 9.1-9.1 9.1 4.1 9.1 9.1v6.6h13.2v-6.6c0-5 4.1-9.1 9.1-9.1s9.1 4.1 9.1 9.1-4.1 9.1-9.1 9.1h-6.6v43.2c0 .2 0 .6-.3.9l-.1.1-.1.1c-.3.1-.6.2-.8.2zm7.8-47c3.6 0 6.6-3 6.6-6.6s-3-6.6-6.6-6.6c-3.6 0-6.6 3-6.6 6.6v6.6h6.6zm-31.4-13.2c-3.6 0-6.6 3-6.6 6.6s3 6.6 6.6 6.6h6.6v-6.6c0-3.6-2.9-6.6-6.6-6.6z"/><path d="M518.1 617.6c-.2 0-.3 0-.3-.1v-44.4h-15v44.1c0 .2 0 .3-.1.3h-.3c-.2 0-.3 0-.3-.1V573h-7.5c-4.5 0-8.2-3.7-8.2-8.2 0-4.5 3.7-8.2 8.2-8.2 4.5 0 8.2 3.7 8.2 8.2v7.5h15v-7.5c0-4.5 3.7-8.2 8.2-8.2 4.5 0 8.2 3.7 8.2 8.2 0 4.5-3.7 8.2-8.2 8.2h-7.5v44.1c0 .2 0 .3-.1.3-.1.1-.2.2-.3.2zm7.8-60.2c-4.1 0-7.5 3.4-7.5 7.5v7.5h7.5c4.1 0 7.5-3.4 7.5-7.5s-3.3-7.5-7.5-7.5zm-31.4 0c-4.1 0-7.5 3.4-7.5 7.5s3.4 7.5 7.5 7.5h7.5v-7.5c0-4.1-3.3-7.5-7.5-7.5zM364.9 618c-5-11.1-9.8-22.2-14.5-33.4-.5 1.3-1.1 2.7-1.6 4 11.6-4.2 23.3-8.5 34.9-12.7 1.7-.6 3.3-1.2 5-1.8-1.1-.6-2.3-1.3-3.4-1.9 5.1 15.3 10 30.6 14.6 46 .9-1.2 1.8-2.3 2.6-3.5-11.6.6-23.3 1.1-34.9 1.7l-5.1.3c-3.5.2-3.5 5.7 0 5.5 11.6-.6 23.3-1.1 34.9-1.7l5.1-.3c1.7-.1 3.2-1.7 2.6-3.5-4.7-15.4-9.5-30.7-14.6-46-.4-1.3-1.9-2.4-3.4-1.9-11.6 4.2-23.3 8.5-34.9 12.7-1.7.6-3.3 1.2-5 1.8-1.8.7-2.4 2.3-1.6 4 4.7 11.2 9.6 22.3 14.5 33.4 1.5 3.3 6.2.5 4.8-2.7zM346.8 576.6c-2.5-6.1-5-12.3-7.4-18.5-.6 1.1-1.3 2.3-1.9 3.4 12.2-4.4 24.3-8.8 36.5-13.3 1.8-.6 3.5-1.3 5.3-1.9-1.1-.6-2.3-1.3-3.4-1.9 2.2 6.2 4.4 12.5 6.6 18.8.6-1.1 1.3-2.3 1.9-3.4-12 4.3-23.9 8.7-35.9 13l-5.1 1.8c-3.3 1.2-1.9 6.5 1.5 5.3 12-4.3 23.9-8.7 35.9-13l5.1-1.8c1.3-.5 2.4-1.9 1.9-3.4-2.2-6.3-4.4-12.5-6.6-18.8-.5-1.3-1.9-2.5-3.4-1.9-12.2 4.4-24.3 8.8-36.5 13.3-1.8.6-3.5 1.3-5.3 1.9-1.3.5-2.5 1.9-1.9 3.4 2.4 6.2 4.9 12.3 7.4 18.5 1.3 3.1 6.6 1.7 5.3-1.5zM333.9 547.6c-12.7-10-22.9-23.4-23.7-40-.7-13.6 4.5-26.8 11.8-38.1 3.7-5.8 8.1-11.3 12.9-16.3.6-.6 1.1-1.2 1.7-1.7.1-.1.5-.4.6-.6 0-.1.1-.1.2-.1l.1-.1c.4-.4-.1-.6-1.4-.6-.4.2-.7 2.2-.8 2.7-.3 1.1-.5 2.2-.6 3.3-.2 1.8-.2 3.6.1 5.3 1.2 7.3 6.9 12.5 12.5 16.8 5.2 4 10.7 7.6 15.6 12s9.3 9.6 11.4 16c2.9 8.7 1.6 18-1 26.7l1.9-1.9c-12.8 4.7-25.6 9.3-38.5 14-1.8.7-3.7 1.3-5.5 2-3.3 1.2-1.9 6.5 1.5 5.3l35.4-12.9c2.4-.9 4.8-1.7 7.2-2.6.4-.2.9-.3 1.3-.5 2.6-1.2 2.9-5.2 3.5-7.7 2.3-10.8 1.7-22.2-4.3-31.8-4.9-7.7-12.2-13.3-19.5-18.6-4.6-3.4-9.7-6.7-13.2-11.2-3.3-4.3-3.7-9.2-2.1-14.3 1-3 .2-6.5-3.4-7-1.9-.3-3.3.6-4.6 1.8-2.6 2.4-4.9 5.1-7.2 7.8-7.5 9-13.8 19.1-17.7 30.3-3.1 9.1-4.3 18.8-2.7 28.3 1.9 11.6 8.1 22 16.2 30.3 2.6 2.7 5.5 5.2 8.5 7.5 2.7 1.9 6.6-1.9 3.8-4.1z"/><g><path d="M443.5 464.7c-10.1 6.3-20.1 12.5-30.2 18.8-4.2 2.6-8.4 5.3-12.7 7.9-1.1.7-2.2.4-2.9-.7-.6-.9-1.2-1.8-1.7-2.8-6.2-10-12.4-20-18.6-29.9-8.3-13.3-16.5-26.5-24.8-39.8-3.1-4.9-6.1-9.8-9.2-14.7-1.4-2.2-3-4.4-4.2-6.8-.8-1.5.2-2.3 1.3-3 1.8-1.1 3.7-2.3 5.5-3.4 6.3-3.9 12.6-7.9 19-11.8 5.3-3.3 10.7-6.6 16-10 1.3-.8 3-2.3 4.2-.6.3.4.6 1 .9 1.4 5.6 8.9 11.1 17.9 16.7 26.8 8.3 13.4 16.6 26.7 25 40.1 5.2 8.4 10.5 16.8 15.7 25.2.7 1.2 1.4 2.4 0 3.3-1.8 1.3 0 4.2 1.8 2.9 2.6-1.8 3-4.9 1.4-7.5-.6-1-1.2-2-1.9-3-2.7-4.3-5.3-8.6-8-12.9-8.2-13.2-16.5-26.5-24.7-39.7-6.9-11.1-13.9-22.3-20.8-33.4l-2.4-3.9c-.7-1.1-1.3-2.1-2.4-2.8-2.4-1.5-4.7-.4-6.8.9-2.1 1.3-4.3 2.7-6.4 4-11.5 7.2-23.1 14.4-34.6 21.6-.4.2-.7.4-1.1.7-2.2 1.6-2.6 4.5-1.3 6.8.3.5.7 1.1 1 1.6 2.2 3.6 4.5 7.2 6.7 10.7 8 12.8 16 25.7 24 38.5 7.5 12 14.9 23.9 22.4 35.9 1.6 2.5 3.1 5 4.7 7.5s4.6 3.3 7.3 1.8c1.4-.8 2.7-1.7 4-2.5 12.1-7.5 24.1-15 36.2-22.5l3-1.8c1.6-1.1-.2-4-2.1-2.9z"/><path d="M406.8 414.6c-11 6.9-22 13.7-33.1 20.6-1.3.8-3.3 2.6-4.6.8-1-1.3-1.8-2.9-2.7-4.3-4.3-6.8-8.5-13.7-12.8-20.5-1.9-3.1-3.8-6.2-5.7-9.2-.9-1.4-1.9-2.7-2.6-4.2-1-2 1.6-3 2.9-3.9l8.7-5.4c6.8-4.2 13.6-8.5 20.4-12.7 1.3-.8 2.7-2 4.1-2.5 1.9-.7 3 2.1 3.7 3.3 7.3 11.8 14.8 23.4 22 35.3.6.9.8 2-.3 2.7-1.8 1.3 0 4.2 1.8 2.9 2.4-1.7 3.1-4.6 1.6-7.1-.3-.5-.6-1-.9-1.4-1.7-2.7-3.3-5.3-5-8l-13.8-22.2c-1.3-2.1-2.6-4.1-3.9-6.2-1.8-2.8-4.8-3.6-7.7-1.9-5.9 3.6-11.7 7.3-17.6 10.9-5.7 3.6-11.5 7-17.1 10.7-2.8 1.8-3.4 5-1.6 7.7 1.4 2.2 2.7 4.3 4.1 6.5 4.6 7.4 9.2 14.7 13.7 22.1 1.6 2.6 3.3 5.2 4.9 7.9.3.5.5.9.8 1.4 1.6 2.4 4.6 3.1 7.1 1.6 5.1-2.9 10-6.3 15-9.4 6.4-4 12.8-7.9 19.1-11.9.4-.2.8-.5 1.2-.7 2-1.2.2-4.1-1.7-2.9zM423.4 443c4.3 7 3.9 16.2-1.2 22.7-5.2 6.5-14 9.2-21.9 6.6-7.9-2.6-13.4-10.1-13.6-18.4-.2-8.3 5-16.1 12.8-19 8.9-3.2 18.8.2 23.9 8.1 1.2 1.9 4.1.1 2.9-1.8-5.2-8.2-14.9-12.4-24.4-10.5-9.5 1.9-17.1 10.1-18.3 19.7-1.2 9.7 3.7 19.4 12.5 23.8 8.7 4.4 19.3 2.8 26.5-3.8 8.1-7.5 9.5-19.9 3.8-29.2-1.3-1.9-4.2-.1-3 1.8z"/><path d="M412.9 450.1c2 3.4 1.1 7.7-2.3 9.8-3.3 2.1-7.8 1-9.8-2.3-2.1-3.3-1-7.8 2.3-9.8 3.3-2.1 7.6-.9 9.8 2.3 1.2 1.8 4.1 0 2.9-1.8-2.4-3.7-6.7-5.6-11.1-4.7-4.3.8-7.7 4.5-8.3 8.8-.6 4.4 1.6 8.8 5.6 10.9 3.9 2 8.8 1.3 12-1.6 3.7-3.4 4.3-9 1.8-13.3-1.2-2-4.1-.2-2.9 1.7z"/></g><g><path d="M622 320.3c-.3.1-.7.2-1 .2h-.7l-83 1.1c-.9 0-1.7 0-2.6.1-1.7 0-3.5.1-5.3 0-3.5-.1-5.8-2.7-5.9-6.6l-.9-67.7v-1-2.1c.1-2.7 1.8-4.9 4.4-5.6.6-.2 1.2-.3 1.8-.3 7.3-.1 14.7-.2 21.9-.3 3.6 0 7.3-.1 10.9-.1l45.9-.6c1.3 0 2.5 0 3.8-.1 2.5 0 5.1-.1 7.6-.1 3.6 0 6.2 2.3 6.4 5.7v3.1l.9 67.7c.2 3.4-1.5 5.9-4.2 6.6zm-1.5-4.8h.3c.4-.1.5-.5.5-1.8v-.4l-.8-60.2v-3.3c0-2.1.1-4.4-.1-6.5-.1-.7-.2-.8-1.8-.8l-89.5 1.2c-.2 0-.4 0-.6.1-.4.1-.6.3-.6.9-.1 2.5 0 5.2.1 7.7 0 1.3.1 2.6.1 3.9l.8 58.8c0 1.4.4 1.5.9 1.5h2.9l87.8-1.1z"/><path d="M620.6 316.4c-8.8.1-17.6.2-26.4.4l-46.3.6c-5.1.1-10.1.1-15.2.2-1 0-2 .1-3 0-1.5-.1-1.8-1.2-1.8-2.4-.2-12.2-.3-24.5-.5-36.7l-.3-22.1c-.1-3.9-.3-7.8-.2-11.6.1-1.4 1-1.9 2.2-1.9 1.3 0 2.7 0 4-.1 5.5-.1 11-.1 16.5-.2l46.6-.6c5.9-.1 11.8-.2 17.6-.2 1.6 0 3.1 0 4.7-.1 1.2 0 2.6-.1 2.8 1.6.3 3.2.1 6.6.1 9.8l.3 21.7c.2 12.8.3 25.6.5 38.5 0 1.2.2 3-1.6 3.1-2.1.1-2.1 3.4 0 3.3 3.3-.2 4.9-2.8 4.8-5.8 0-1.8 0-3.5-.1-5.3l-.3-20.4-.6-42v-3c-.2-3-2.6-4.9-5.5-4.8-3.8 0-7.6.1-11.4.2l-45.9.6c-10.9.1-21.9.2-32.8.4-2.9.1-5.3 1.9-5.3 5v3c.1 5.9.2 11.7.2 17.6l.6 44.8c0 1.8 0 3.5.1 5.3 0 3 1.7 5.6 5 5.7 2.6.1 5.3-.1 7.9-.1l44-.6c12.4-.2 24.8-.3 37.2-.5h2c2.2-.2 2.2-3.4.1-3.4z"/><path d="M623.5 261.2c-.2.1-.4.1-.7.1h-.1c-2.6.2-5.3.1-7.9.1h-3.9l-84.9 1.1c-1.3 0-2.3-.8-2.5-2.2-.2-1.3.5-2.5 1.7-2.8.2-.1.4-.1.7-.1h.1c2.6-.2 5.3-.1 7.9-.1h3.9l84.9-1.1c1.3 0 2.3.8 2.5 2.2.2 1.2-.5 2.4-1.7 2.8z"/><path d="M526 261.6c3.2 0 6.4-.1 9.6-.1l23.2-.3c9.3-.1 18.6-.2 27.9-.4l24.2-.3c3.9-.1 7.8.1 11.7-.2h.2c2.1 0 2.1-3.3 0-3.3-3.2 0-6.4.1-9.6.1l-23.2.3c-9.3.1-18.6.2-27.9.4l-24.2.3c-3.9.1-7.8-.1-11.7.2h-.2c-2.1.1-2.1 3.4 0 3.3zM535.1 253.7c-.3.1-.5.1-.8.1-.9 0-1.7-.3-2.3-.9-.6-.6-1-1.4-1-2.3 0-1.5.9-2.8 2.4-3.2.3-.1.5-.1.8-.1 1.8 0 3.2 1.4 3.3 3.2 0 1.5-1 2.8-2.4 3.2z"/><circle cx="534.2" cy="250.5" r="2.3"/><path d="M543.1 253.5c-.3.1-.5.1-.8.1-.9 0-1.7-.3-2.3-.9-.6-.6-1-1.4-1-2.3 0-1.5.9-2.8 2.4-3.2.3-.1.5-.1.8-.1.9 0 1.7.3 2.3.9.6.6 1 1.4 1 2.3-.1 1.6-1 2.9-2.4 3.2z"/><circle cx="542.2" cy="250.4" r="2.3"/><path d="M551 253.4c-.3.1-.5.1-.8.1-.9 0-1.7-.3-2.3-.9-.6-.6-1-1.4-1-2.3 0-1.5.9-2.8 2.4-3.2.3-.1.5-.1.8-.1 1.8 0 3.2 1.4 3.3 3.2 0 1.6-1 2.8-2.4 3.2z"/><circle cx="550.1" cy="250.3" r="2.3"/><g><path d="M560 302.9c-.3.1-.5.1-.8.1-.8 0-1.6-.3-2.2-.9l-10.7-10.4c-.6-.6-.9-1.4-.9-2.2 0-.8.3-1.6.9-2.2l10.4-10.7c.4-.4.9-.7 1.4-.8.3-.1.5-.1.8-.1.8 0 1.6.3 2.2.9 1.2 1.2 1.2 3.2.1 4.4l-8.2 8.4 8.4 8.2c1.2 1.2 1.2 3.2.1 4.4-.5.5-.9.8-1.5.9z"/><path d="M559.2 302.1c-.6 0-1.1-.2-1.6-.6L547 291.1c-.4-.4-.7-1-.7-1.5 0-.6.2-1.1.6-1.6l10.4-10.7c.4-.4 1-.7 1.5-.7.6 0 1.1.2 1.6.6.9.8.9 2.2 0 3.1l-8.9 9.1 9.1 8.9c.9.8.9 2.2 0 3.1-.2.5-.8.7-1.4.7zM591.2 302.5c-.3.1-.5.1-.8.1-.8 0-1.6-.3-2.2-.9-1.2-1.2-1.3-3.2-.1-4.4l8.2-8.4-8.4-8.2c-1.2-1.2-1.3-3.2-.1-4.4.4-.4.9-.7 1.4-.8.3-.1.5-.1.8-.1.8 0 1.6.3 2.2.9l10.7 10.4c.6.6.9 1.4.9 2.2 0 .8-.3 1.6-.9 2.2l-10.4 10.7c-.3.3-.8.5-1.3.7z"/><path d="M590.4 301.7c-.6 0-1.1-.2-1.6-.6-.9-.8-.9-2.2 0-3.1l8.9-9.1-9.1-8.9c-.9-.8-.9-2.2 0-3.1.4-.4 1-.7 1.5-.7.6 0 1.1.2 1.6.6l10.7 10.4c.4.4.7 1 .7 1.5 0 .6-.2 1.1-.6 1.6L591.9 301c-.4.4-.9.7-1.5.7zM571.5 311.2c-.3.1-.5.1-.8.1-.2 0-.4 0-.6-.1-.8-.1-1.5-.6-2-1.3-.5-.7-.6-1.5-.5-2.3l6.9-38c.2-1.2 1.1-2.1 2.2-2.4.3-.1.5-.1.8-.1.2 0 .4 0 .6.1 1.7.3 2.8 1.9 2.5 3.6l-6.9 38c-.2 1.1-1.1 2.1-2.2 2.4z"/><path d="M570.7 310.4h-.4c-.6-.1-1.1-.4-1.4-.9-.3-.5-.5-1.1-.4-1.6l6.9-38c.2-1 1.1-1.8 2.1-1.8h.4c1.2.2 2 1.4 1.8 2.5l-6.9 38c-.2 1-1 1.8-2.1 1.8z"/></g></g><g><path d="M615.2 211.2c4.3-10.1 16-14.8 26.1-10.5 10.1 4.3 14.8 16 10.5 26.1l-4.3 10.1c-3.6 8.5.3 18.3 8.8 21.9 7.2 3.1 15.4.8 20-5.4l3 1.3c-5.3 7.8-15.4 10.8-24.2 7.1-10.1-4.3-14.8-16-10.5-26.1l4.3-10.1c3.6-8.5-.3-18.3-8.8-21.9-8.5-3.6-18.3.3-21.9 8.8l-4.2 9.9c-.5-.2-1-.4-1.5-.7l-1.5-.6 4.2-9.9z"/><path d="M684.353 249.438l-2.939 6.9-6.9-2.94 2.94-6.9z"/><path d="M673.8 253.6l3.3-7.8 7.8 3.3-3.3 7.8-7.8-3.3zm3.8-6.6l-2.6 6.1 6.1 2.6 2.6-6.1-6.1-2.6zM650.667 235.045l-2.94 6.9-6.9-2.94 2.94-6.9z"/><path d="M640.1 239.3l3.3-7.8 7.8 3.3-3.3 7.8-7.8-3.3zm3.8-6.6l-2.6 6.1 6.1 2.6 2.6-6.1-6.1-2.6zM616.885 220.725l-2.94 6.9-6.9-2.939 2.94-6.9z"/><path d="M606.4 224.9l3.3-7.8 7.8 3.3-3.3 7.8-7.8-3.3zm3.8-6.6l-2.6 6.1 6.1 2.6 2.6-6.1-6.1-2.6zM661.25 257.754l-2.94 6.9-6.9-2.939 2.94-6.9z"/><path d="M650.7 262l3.3-7.8 7.8 3.3-3.3 7.8-7.8-3.3zm3.8-6.6l-2.6 6.1 6.1 2.6 2.6-6.1-6.1-2.6zM646.049 200.356l-2.94 6.9-6.9-2.94 2.94-6.9z"/><path d="M671.565 212.978l-.352.828-59.34-25.278.352-.828z"/><circle cx="672" cy="213.6" r="1.9"/><circle cx="611.7" cy="187.9" r="1.9"/></g><path d="M441 508.6c-7.6 2.8-15.8 6.7-21 13.1-2.4 3.1-4.7 6.5-6 10.2-1.3 3.8-1.5 8-1.2 11.9 1.6 16.8 13.2 29.6 21.3 43.6 4.8 8.2 8.8 17.7 7.4 27.4-.5 3.4 4.8 4.9 5.3 1.4 2.3-16.5-7.1-30.6-15.8-43.7-7.8-11.8-18.5-28.9-10-43 2.2-3.6 4.7-7 8.3-9.3 4.1-2.5 8.4-4.8 12.9-6.5 3.5-1.1 2.1-6.4-1.2-5.1z"/><path d="M434.9 497.1l37.7-12.9 10 29.2-37.7 12.9-10-29.2zm13.9 22.4l26.4-9-6.6-19.4-26.4 9 6.6 19.4z"/><path d="M436.6 498l9.1 26.6 35.1-12-9.1-26.6-35.1 12zm40.4 13.4l-29 9.9-7.5-22 29-9.9 7.5 22z"/><g><path d="M443.7 296.6l-7.4-19.2 15.6-6 7.4 19.2-15.6 6zm9.2-8.9l-3.8-9.9-6.3 2.4 3.8 9.9 6.3-2.4zM441.9 361c-1.3.5-2.8-.2-3.3-1.5s.2-2.8 1.5-3.3l35.9-13.8c1.3-.5 2.8.2 3.3 1.5s-.2 2.8-1.5 3.3L441.9 361zM438.2 351.3c-1.3.5-2.8-.2-3.3-1.5s.2-2.8 1.5-3.3l35.9-13.8c1.3-.5 2.8.2 3.3 1.5s-.2 2.8-1.5 3.3l-35.9 13.8z"/><path d="M441.7 395.9l-20.9-54.5 69.5-26.7 20.9 54.5-69.5 26.7zm62.8-29.6l-17.2-44.9-59.9 23 17.2 44.9 59.9-23z"/><path d="M433.4 399.4c-4.3 1.6-9.1-.5-10.8-4.8L384 293.9c-1.6-4.3.5-9.1 4.8-10.8l76.5-29.4.3.3 29.1 13 33.4 87.1c1.6 4.3-.5 9.1-4.8 10.8l-89.9 34.5zm-42.7-111.5c-1.6.6-2.5 2.5-1.8 4.1l38.6 100.7c.6 1.7 2.5 2.5 4.1 1.8l89.9-34.5c1.7-.6 2.5-2.5 1.8-4.1l-32.6-85.1-25.7-11.4-3.3 1.3 13.8 36-55.1 21.1-13.8-36-15.9 6.1zm78 5.8l-11.9-31-45.4 17.4 11.9 31 45.4-17.4z"/><path d="M445.7 370.7c-1.3.5-2.8-.2-3.3-1.5s.2-2.8 1.5-3.3l35.9-13.8c1.3-.5 2.8.2 3.3 1.5s-.2 2.8-1.5 3.3l-35.9 13.8zM449.4 380.4c-1.3.5-2.8-.2-3.3-1.5s.2-2.8 1.5-3.3l35.9-13.8c1.3-.5 2.8.2 3.3 1.5s-.2 2.8-1.5 3.3l-35.9 13.8z"/></g><path d="M639.5 618.2l-.6-3.5H348.6l-.7 3.5c-3.1 16.3-3.4 33-.9 49.6l.1.8-43.6 77.7 48.2 11v82.1h65.5v59H570v-90.2l1-.7c22.1-15.6 40.2-36.6 52.5-60.6 12.2-23.8 18.6-50.7 18.5-77.8v-23.9c0-9-.8-18.1-2.5-27zm-228.4 75c-16.9 0-29.4-11.7-30.4-28.2h8.5c.9 12 9.3 19.7 21.9 19.7 12.5 0 20.9-7.6 21.9-19.7h8.5c-1.1 16.4-13.5 28.2-30.4 28.2z"/><path d="M621.9 616.3l29.8-71.6-21.1-10.5-35.2 82.1h-6.3l37.7-87.9 31.5-23.5V544l-30.2 72.3h-6.2zm12.8-86.4l17.8 8.9v-22.3l-17.8 13.4z"/><g><path d="M699 330.3c-1.8 2.4-3.5 4.8-5.7 6.9-2.3 2.2-5.2 4.1-8.2 5.4-2.9 1.3-6.2.4-8.3-1.9l-2.1-2.4c-6.8-7.7-13.7-15.4-20.5-23.1-2.1-2.3-4.2-4.7-6.2-7 0 .7-.1 1.4-.1 2.1 6.9-6.1 13.7-12.2 20.6-18.4 1-.9 1.9-1.7 2.9-2.6-.7 0-1.4-.1-2.1-.1 3.8 4.3 7.7 8.6 11.5 12.9 5.4 6.1 10.8 12.1 16.2 18.2.6.6 1.1 1.3 1.7 1.9 1.9 2.5 2 5.6.3 8.1-1.1 1.6 1.4 3.3 2.5 1.7 2.1-2.9 2.4-6.9.5-10-.5-.8-1.1-1.6-1.8-2.3-2-2.3-4.1-4.6-6.1-6.8-6.1-6.8-12.1-13.6-18.2-20.4l-4.5-5.1c-.5-.6-1.5-.7-2.1-.1-6.9 6.1-13.7 12.2-20.6 18.4-1 .9-1.9 1.7-2.9 2.6-.6.5-.7 1.5-.1 2.1 5.6 6.3 11.2 12.6 16.8 18.8 3.3 3.8 6.7 7.5 10 11.3l2.1 2.4c2.4 2.6 5.8 3.9 9.3 3.4 1.8-.3 3.4-1.2 4.9-2.1 1.8-1 3.6-2.1 5.3-3.5 3-2.4 5.2-5.5 7.5-8.6 1-1.7-1.5-3.4-2.6-1.8z"/><path d="M639.3 293.8c4.8-4.3 9.7-8.6 14.5-12.9.7-.6 1.4-1.2 2.1-1.9-.7 0-1.4-.1-2.1-.1 4 4.5 8 9 12 13.4 0-.7.1-1.4.1-2.1-4.9 4.4-9.8 8.7-14.7 13.1-.7.6-1.4 1.2-2.1 1.9.7 0 1.4.1 2.1.1-3.9-4.5-7.9-9.1-11.8-13.6-1.3-1.5-3.5.5-2.3 2 3.9 4.5 7.9 9.1 11.8 13.6.5.6 1.5.7 2.1.1 4.9-4.4 9.8-8.7 14.7-13.1.7-.6 1.4-1.2 2.1-1.9.6-.5.7-1.5.1-2.1-4-4.5-8-9-12-13.4-.5-.6-1.5-.7-2.1-.1-4.8 4.3-9.7 8.6-14.5 12.9-.7.6-1.4 1.2-2.1 1.9-1.3 1.2.7 3.5 2.1 2.2zM678.9 304.7l-3.4 3 3 3.4.8-.7 2.5 2.8-3.3 6.4-9.2-10.4 1.9.1c.6 0 1.2-.4 1.2-1.1 0-.6-.4-1.2-1.1-1.2l-4.5-.3c-.6 0-1.2.4-1.2 1.1l-.3 5.6c0 .6.4 1.2 1.1 1.2.6 0 1.2-.4 1.2-1.1l.2-2.7 11.3 12.7-6.7 2.6-2.5-2.8c-.2-.2-.4-.3-.6-.3 0-.1.1-.2.1-.4.1-1.2-.9-2.3-2.1-2.4-1.2-.1-2.3.9-2.4 2.1-.1 1.2.9 2.3 2.1 2.4.4 0 .8-.1 1.1-.2 0 .1.1.2.2.3l3 3.4c.3.4.8.5 1.2.3l8.2-3.2 1.7 1.9c.1.2.3.2.5.3-.3.4-.4.9-.4 1.5-.1 1.9 1.3 3.5 3.2 3.6 1.9.1 3.5-1.3 3.6-3.2.1-1.9-1.3-3.5-3.2-3.6-.6 0-1.2.1-1.7.4 0-.2-.1-.3-.2-.5l-2.3-2.6-1.7-1.9 4.1-7.8c.1-.1.1-.3.1-.5 0-.3-.1-.6-.3-.8l-3-3.3.8-.7-3-3.4z"/></g><g><path d="M561.7 73.2c1.5 7.2 3 14.4 4.6 21.6 3.3 15.7 6.7 31.5 10 47.2l9.9 46.5c1 4.9 2.1 9.8 3.1 14.7.4 2 2 5.8.2 7.5-1.1 1-3.4 1.1-4.8 1.4-3.5.7-7 1.5-10.5 2.2l-36.9 7.8c-16.3 3.4-32.6 6.9-48.8 10.3-16.6 3.5-33.3 7-49.9 10.6-13.3 2.8-26.7 5.7-40 8.5-6.4 1.4-12.8 3-19.3 4.1-2.8.5-3.6-1.5-4-3.7l-2.4-11.4c-3.1-14.4-6.1-28.8-9.2-43.2-3.5-16.4-6.9-32.7-10.4-49.1l-6-28.5c-.3-1.3-.5-2.7.8-3.7.6-.5 1.2-.5 1.9-.7 2.4-.5 4.9-1 7.3-1.6l32.4-6.9c15.7-3.3 31.3-6.6 47-10 16.9-3.6 33.7-7.2 50.6-10.7 14.4-3.1 28.8-6.1 43.2-9.2 8.4-1.8 16.9-3.6 25.3-5.4 2.2-.3 5.1-1.3 5.9 1.7.9 3.4 6.3 2.3 5.4-1.1-1.2-4.5-5.2-7.1-9.8-6.3-.6.1-1.1.2-1.6.3-3 .6-6 1.3-8.9 1.9-11.8 2.5-23.5 5-35.3 7.5-16.4 3.5-32.8 6.9-49.1 10.4-17 3.6-34 7.2-51.1 10.8-13.9 3-27.9 5.9-41.8 8.9-6.9 1.5-13.8 2.9-20.7 4.4-5 1.1-7.9 5.3-6.9 10.3.6 3 1.3 6.1 1.9 9.1 3 14 5.9 27.9 8.9 41.9 3.6 16.9 7.2 33.8 10.7 50.7l6.6 31.2c.1.7.3 1.4.5 2.1 1.3 4.2 5.5 6.5 9.7 5.7 1.8-.3 3.6-.8 5.3-1.1 10.1-2.1 20.2-4.3 30.3-6.4 15.6-3.3 31.1-6.6 46.7-9.9 17.3-3.7 34.5-7.3 51.8-11 15-3.2 30-6.4 45-9.5l27-5.7c2.7-.6 5.3-.9 7.3-3 3.2-3.4 2.2-7.2 1.3-11.1-2.5-11.9-5.1-23.9-7.6-35.8-3.6-17-7.2-34-10.8-50.9-2.7-12.9-5.4-25.7-8.2-38.6-.4-1.9-.8-3.9-1.2-5.8-.7-3.6-6.1-2.4-5.4 1z"/><path d="M539.1 87.4c4.1 19.5 8.3 39 12.4 58.5 2.8 13.4 5.7 26.8 8.5 40.2.9 4.4 1.9 8.8 2.8 13.2.3 1.7.9 3.3 1.1 5 .4 3-2.3 3.3-4.4 3.7l-8.4 1.8c-10.3 2.2-20.6 4.4-30.8 6.5-28.1 6-56.2 11.9-84.2 17.9-11.4 2.4-22.9 4.9-34.3 7.3-5.4 1.2-10.9 2.6-16.4 3.5-2.6.4-3.4-1.3-3.9-3.4-.7-3.2-1.4-6.4-2-9.6-2.6-12.3-5.2-24.6-7.8-36.8-4.8-22.6-9.6-45.3-14.4-67.9-.4-2.1-.2-3.9 2.2-4.6 1.8-.5 3.7-.8 5.5-1.2 8.9-1.9 17.8-3.8 26.8-5.7 27.7-5.9 55.4-11.7 83.1-17.6 19.7-4.2 39.3-8.3 59-12.5 1.8-.4 4.4-1.2 5.2 1.7.9 3.4 6.3 2.3 5.4-1.1-1.4-5.2-6.1-7.1-11-6.1-2.5.5-5 1.1-7.4 1.6-10 2.1-20 4.2-30 6.4-14.1 3-28.1 6-42.2 8.9-14.6 3.1-29.3 6.2-43.9 9.3l-35.4 7.5c-5.5 1.2-11.1 2.2-16.5 3.5-4.9 1.2-7.5 5.5-6.5 10.4.6 2.8 1.2 5.6 1.8 8.3l7.8 36.6c3.1 14.5 6.1 29 9.2 43.4 1.9 8.9 3.8 17.7 5.6 26.6 1 4.9 4.7 8.6 10.1 7.7 1.4-.2 2.8-.6 4.2-.9 8.6-1.8 17.2-3.6 25.8-5.5 13.4-2.8 26.8-5.7 40.2-8.5 14.7-3.1 29.5-6.2 44.2-9.4l38.4-8.1c7.4-1.6 14.7-3.1 22.1-4.7 3.3-.7 6.4-1.9 7.9-5.4 1.2-2.8.3-5.7-.3-8.6-2.2-10.5-4.4-20.9-6.7-31.4-3.1-14.7-6.2-29.3-9.3-44-2.3-11-4.6-21.9-7-32.9-.3-1.6-.7-3.3-1-4.9-.9-3.3-6.2-2.2-5.5 1.3zM566.3 142.2c3.2-.5 4.2 4.2 1 4.9-3.1.7-4.1-4.1-1-4.9 3.4-.9 2.3-6.3-1.1-5.4-4.2 1.1-7.1 5.1-6.2 9.5.9 4.3 5.2 7 9.5 6.2 4.2-.9 6.9-5 6.2-9.2-.8-4.6-5.1-7.1-9.5-6.5-3.5.6-2.4 5.9 1.1 5.4zM571.5 164c1.9-.3 2.6 2.6.6 3-1.9.4-2.5-2.5-.6-3 2.1-.6 1.4-3.8-.7-3.3-2.6.7-4.3 3.1-3.8 5.8.6 2.6 3.2 4.3 5.8 3.8 2.5-.5 4.2-3.1 3.8-5.6-.5-2.8-3.1-4.4-5.8-3.9-2.2.2-1.5 3.5.7 3.2zM576.1 184.8c1.9-.3 2.6 2.6.6 3-1.9.4-2.5-2.5-.6-3 2.1-.6 1.4-3.8-.7-3.3-2.6.7-4.3 3.1-3.8 5.8.6 2.6 3.2 4.3 5.8 3.8 2.5-.5 4.2-3.1 3.8-5.6-.5-2.8-3.1-4.4-5.8-3.9-2.2.2-1.5 3.5.7 3.2zM562.3 122.3c1.9-.3 2.6 2.6.6 3-1.9.5-2.5-2.4-.6-3 2.1-.6 1.4-3.8-.7-3.3-2.6.7-4.3 3.1-3.8 5.8.6 2.6 3.2 4.3 5.8 3.8 2.5-.5 4.2-3.1 3.8-5.6-.5-2.8-3.1-4.4-5.8-3.9-2.1.3-1.4 3.6.7 3.2zM557.4 101.5c1.9-.3 2.6 2.6.6 3-1.9.5-2.5-2.4-.6-3 2.1-.6 1.4-3.8-.7-3.3-2.6.7-4.3 3.1-3.8 5.8.6 2.6 3.2 4.3 5.8 3.8 2.5-.5 4.2-3.1 3.8-5.6-.5-2.8-3.1-4.4-5.8-3.9-2.1.3-1.4 3.6.7 3.2z"/></g><g><path d="M331.8 350.4c.2 10.5-7.5 19.8-18.2 21.3l-10.9 1.5c-8.4 1.2-14.3 9-13.1 17.4 1.1 7.5 7.4 13 14.8 13.2l.7 5.7c-10.5.2-19.7-7.5-21.2-18.2-1.6-11.6 6.5-22.3 18-23.9l10.9-1.5c7.5-1.1 13-7.4 13.2-14.8l5.8-.7z"/><path d="M316.3 402.3c11.6-1.6 22.3 6.5 23.9 18s-6.5 22.3-18 23.9l-10.9 1.5c-8.4 1.2-14.3 9-13.1 17.4 1.1 7.5 7.4 13 14.8 13.2l.8 5.8c-10.5.2-19.8-7.5-21.3-18.2-1.6-11.6 6.5-22.3 18-23.9l10.9-1.5c8.4-1.2 14.3-9 13.1-17.4s-9-14.3-17.4-13.1l-12 1.7c-.1-1-.6-1.9-.8-2.8-.1-1 .1-2-.1-2.9l12.1-1.7z"/><g><path d="M283.9 318.6c2.4 16 14.4 29 30.2 32.6 15.7 3.6 32.7-3.6 41.2-17.3 4.9-7.8 6.8-17 5.6-26.1-.5-3.5-5.9-2.7-5.4.8 1.8 13.7-5 27.6-17.3 34.1-12.4 6.5-27.7 4.6-38.2-4.7-5.8-5.2-9.5-12.4-10.7-20.1-.5-3.6-5.9-2.8-5.4.7z"/><path d="M289.4 317.8c-1.8-13.1-3.7-26.1-5.5-39.2-.3-1.9-.5-3.7-.8-5.6-.5-3.5-5.9-2.7-5.4.8 1.8 13.1 3.7 26.1 5.5 39.2.3 1.9.5 3.7.8 5.6.5 3.4 5.9 2.7 5.4-.8z"/><path d="M283 272.9c-1.9-14 5.3-28.2 18.1-34.5 12.8-6.3 28.8-3.8 38.8 6.5 2.6 2.7 4.8 5.9 6.4 9.3.9 1.8 1.6 3.8 2.1 5.7.4 1.6.3 4.7 1.9 5.6-.4-.6-.7-1.2-1.1-1.8 1.8 13.1 3.7 26.1 5.5 39.2.3 1.9.5 3.7.8 5.6.5 3.5 5.9 2.7 5.4-.8-1.9-13.4-3.8-26.7-5.7-40.1-.2-1.7-.1-5.6-1.8-6.6.4.6.7 1.2 1.1 1.8-2.4-16-14.4-29-30.2-32.6-15.7-3.6-32.7 3.6-41.2 17.3-4.9 7.8-6.8 17-5.6 26.1.6 3.5 6 2.8 5.5-.7z"/></g><circle cx="325.5" cy="322.8" r="4.2"/></g></g><path fill="#3C98CA" d="M-837.3-180.6h112.5v166.5h-112.5z"/><path fill="#E3A719" d="M-693.3-183.6h105v165h-105z"/><path fill="#389545" d="M-577.8-179.1h94.5v159h-94.5z"/><path fill="#C74235" d="M-446-216.6h122.2v199.5H-446z"/></svg>