<?xml version="1.0" encoding="utf-8"?>
<!-- Generator: Adobe Illustrator 16.0.4, SVG Export Plug-In . SVG Version: 6.00 Build 0)  -->
<!DOCTYPE svg PUBLIC "-//W3C//DTD SVG 1.1//EN" "http://www.w3.org/Graphics/SVG/1.1/DTD/svg11.dtd">
<svg version="1.1" id="Layer_1" xmlns="http://www.w3.org/2000/svg" xmlns:xlink="http://www.w3.org/1999/xlink" x="0px" y="0px"
	 width="612px" height="792px" viewBox="0 0 612 792" enable-background="new 0 0 612 792" xml:space="preserve">
<path fill="none" d="M189.039,357.382c1.504-1.036,1.528-1.955,1.446-2.992h-2.888C187.607,355.862,187.811,357.14,189.039,357.382z
	"/>
<path fill="#E0E0E0" d="M181.534,414.647v0.336c-0.639-0.265-1.253-0.55-1.868-0.747v-0.542c0.065-0.774-2.895-0.774-2.814,0
	c0.973,0.265,1.326,1.17,2.814,0.953v-0.392l1.868,0.741v0.568c0.906,1.602,3.073,3.937,5.627,2.35
	C186.7,415.4,184.107,415.024,181.534,414.647z"/>
<path fill="#E0E0E0" d="M189.972,420.731c1.847,1.344,4.997,0.907,6.103-0.938C195.523,417.519,189.221,416.678,189.972,420.731z"/>
<g>
	<defs>
		<path id="SVGID_74_" d="M589.892,397.988l-23.786-39.619c-1.315-2.188-4.483-3.983-7.041-3.983h-0.078l-513.214,0.005
			c-2.377,0-3.33,1.569-2.403,3.547l23.95,40.039c1.315,2.199,1.315,5.779,0,7.967L43.522,445.56
			c-1.314,2.188-0.298,3.983,2.25,3.983l513.292-0.005c2.558,0,5.726-1.785,7.041-3.981l23.786-39.604
			C591.208,403.756,591.208,400.176,589.892,397.988z"/>
	</defs>
	<clipPath id="SVGID_1_">
		<use xlink:href="#SVGID_74_"  overflow="visible"/>
	</clipPath>
	<g clip-path="url(#SVGID_1_)">
		<path fill="#E0E0E0" d="M400.771,261.1c0.305,0.183,0.653,0.836,1.001,1.004c2.979,1.319,5.043,0.079,7.417-0.5
			c0.915,1.247,0.915,3.381,2.969,3.468c1.682-0.629,2.844-1.793,3.472-3.468c-0.991-1.111-1.911-2.847-3.973-2.974
			c-1.511-0.096-1.967,0.504-3.45,0.991c-1.615-2.177-3.445-4.149-6.936-4.457c-0.916-1.868-1.938-3.642-4.938-3.454
			c-1.872,2.442-1.07,5.449,0.486,7.41C397.176,259.567,400.163,260.715,400.771,261.1z"/>
		<path fill="#E0E0E0" d="M194.449,265.564c1.153,0,2.318,0,3.472,0c0.259,1.543,0.877,2.764,1.484,3.956
			c1.371,0.359,1.509-1.124,1.981-1.995c2.027-3.73-0.557-4.884-2.979-6.426c0.136-2.08-1.433-2.51-1.985-3.94
			C191.317,256.686,192.124,263.779,194.449,265.564z"/>
		<path fill="#E0E0E0" d="M469.554,259.621c-1.367-3.312-8.472-1.909-10.869-0.501C457.957,267.525,469.002,265.501,469.554,259.621
			z"/>
		<path fill="#E0E0E0" d="M476.475,258.63c-0.165-0.998-1.79-1.186-3.45-0.493C472.925,261.476,476.742,260.06,476.475,258.63z"/>
		<path fill="#E0E0E0" d="M182.081,264.064c1.303-0.51,2.219-1.409,2.47-2.965c1.183-0.466,2.441-0.87,1.987-2.963
			c-0.822,0-1.642,0-2.472,0c0.068,2.551-3.253,1.707-4.45,2.963C179.518,263.02,180.408,263.946,182.081,264.064z"/>
		<path fill="#E0E0E0" d="M360.712,266.555c1.188,0.136,0.927-0.278,1.979-0.99c1.79-1.241,1.704-1.305,2.47-2.978
			c0.414-0.875,1.348-1.18,0.983-1.968c-1.431-1.234-2.469,2.132-4.451,1.968c-1.011-0.634-0.884-2.393-2.969-1.968
			C356.593,263.541,358.525,266.276,360.712,266.555z"/>
		<path fill="#E0E0E0" d="M168.744,269.521c-0.376,3.662,1.538,5.048,2.949,6.921c4.566-1.125,10.913,1.08,11.89-2.965
			c0.371-1.682-0.751-1.195-1.502-2.484c-0.499-0.831,0.127-2.542-1.468-2.455c-2.067-0.397-0.942,2.369-2.982,1.965
			c-1.48-1.148-2.092-3.173-2.97-4.938c0.417-1.396,1.606-2.037,1.489-3.961c-2.123-1.503-3.65-0.916-5.439,0
			c-1.954,0.998-5.466,2.104-5.466,3.961C165.98,267.329,168.162,267.635,168.744,269.521z"/>
		<path fill="#E0E0E0" d="M354.279,268.026c0-0.974,0-1.973,0-2.955c-1.42-1.154-3.738-0.08-4.959,0.493
			C349.77,267.715,351.903,269.267,354.279,268.026z"/>
		<path fill="#E0E0E0" d="M473.521,269.018c0.291-1.771-1.475-1.513-2.965-1.492C469.876,269.759,472.549,269.939,473.521,269.018z"
			/>
		<path fill="#E0E0E0" d="M321.116,286.841c3.247-0.216,1.855-5.063,4.454-5.953c0.648,1.334,1.067,2.897,3.464,2.487
			c1.862-3.33-3.075-3.735-2.965-6.934c2.687-0.775,5.52-1.39,5.448-4.942c-1.346-1.804-4.729-1.547-7.918-1.483
			c-1.342,0.964-2.261,2.365-3.949,2.972c-1.199,0.647-3.43,0.195-4.466,0.984c-1.598,3.871,1.759,6.254,3.452,8.405
			C318.706,284.643,319.845,285.816,321.116,286.841z"/>
		<path fill="#E0E0E0" d="M185.051,417.458c-0.484-2.65-3.217-3.049-5.933-3.445v0.353c-0.672-0.278-1.32-0.575-1.968-0.789v-0.568
			c0.067-0.816-3.054-0.816-2.97,0c1.024,0.277,1.399,1.234,2.97,1.005v-0.412l1.968,0.779v0.6
			C180.076,416.67,182.359,419.131,185.051,417.458z"/>
		<path fill="#E0E0E0" d="M188.017,420.428c1.944,1.416,5.271,0.957,6.433-0.991C193.873,417.036,187.224,416.153,188.017,420.428z"
			/>
		<path fill="#E0E0E0" d="M579.398,524.837h-0.984c0.278,4.875-3.581,5.671-2.482,11.371c-1.484,0-2.952,0-4.449,0
			c-1.446,1.536-2.643,3.48-4.44,4.943c-3.246,2.651-9.33,3.594-7.434,9.406c5.075,2.314,6.601-3.566,8.405-5.435
			c0.24-0.236,1.251-0.336,1.498-0.494c0.805-0.544,1.105-1.187,1.468-1.989c0.069-0.141,0.871-0.343,1.001-0.489
			c1.342-1.62,2.451-3.055,3.463-4.465c1.887-0.203,3.57-1.444,4.452-2.469c0.517-0.58,0.57-1.452,0.987-1.966
			c1.581-1.926,2.552-1.841,2.481-3.48C583.238,527.479,580.537,527.12,579.398,524.837z"/>
		<path fill="#E0E0E0" d="M529.433,531.256c-1.49,1.388-2.136,5.209-0.497,6.934c3.758,0.141,5.103-2.164,4.953-5.93
			C532.471,531.835,530.821,531.659,529.433,531.256z"/>
	</g>
</g>
<text transform="matrix(1 0 0 1 271.085 425.1543)" fill="#4D4D4D" font-family="'OpenSans-Semibold'" font-size="64.7077" letter-spacing="-3">Salamanca</text>
<g>
	<g>
		<path fill="#4D4D4D" d="M223.643,417.923"/>
		<path fill="#4D4D4D" d="M141.657,398.101h19.474v24.341c-5.29,1.814-11.097,2.713-17.445,2.713c-6.95,0-12.323-2.014-16.126-6.046
			c-3.804-4.032-5.693-9.795-5.693-17.272c0-7.277,2.073-12.94,6.236-17c4.158-4.061,9.979-6.062,17.472-6.062
			c2.844,0,5.518,0.256,8.033,0.799c2.534,0.529,4.734,1.202,6.608,2.018l-3.876,9.564c-3.245-1.604-6.818-2.403-10.71-2.403
			c-3.546,0-6.305,1.172-8.249,3.476c-1.959,2.316-2.916,5.617-2.916,9.924c0,4.219,0.871,7.435,2.645,9.649
			c1.743,2.217,4.273,3.306,7.593,3.306c1.816,0,3.487-0.159,5.003-0.519v-7.062h-8.048V398.101z"/>
		<path fill="#4D4D4D" d="M193.443,401.449c0-4.147-0.814-7.207-2.443-9.208c-1.631-1.987-4.134-2.989-7.463-2.989h-3.547v25.282
			h2.718c3.715,0,6.433-1.075,8.148-3.232C192.588,409.171,193.443,405.868,193.443,401.449 M206.097,401.021
			c0,7.521-2.058,13.327-6.218,17.402c-4.133,4.074-9.965,6.105-17.473,6.105h-14.598V379.4h15.613c7.233,0,12.826,1.86,16.77,5.562
			C204.139,388.655,206.097,394.015,206.097,401.021"/>
		<path fill="#4D4D4D" d="M229.775,398.101h19.49v24.341c-5.291,1.814-11.11,2.713-17.444,2.713c-6.949,0-12.326-2.014-16.13-6.046
			c-3.789-4.032-5.688-9.795-5.688-17.272c0-7.277,2.071-12.94,6.231-17c4.147-4.061,9.98-6.062,17.474-6.062
			c2.831,0,5.52,0.256,8.05,0.799c2.502,0.529,4.706,1.202,6.575,2.018l-3.857,9.564c-3.245-1.604-6.822-2.403-10.709-2.403
			c-3.562,0-6.307,1.172-8.264,3.476c-1.933,2.316-2.905,5.617-2.905,9.924c0,4.219,0.873,7.435,2.631,9.649
			c1.759,2.217,4.289,3.306,7.605,3.306c1.816,0,3.492-0.159,5.008-0.519v-7.062h-8.066V398.101z"/>
	</g>
</g>
<g>
	<g>
		<radialGradient id="SVGID_2_" cx="40.7744" cy="352.4336" r="111.155" gradientUnits="userSpaceOnUse">
			<stop  offset="0" style="stop-color:#CECECE"/>
			<stop  offset="1" style="stop-color:#C3C3C3"/>
		</radialGradient>
		<path fill="url(#SVGID_2_)" d="M77.067,414.121l-21.325,35.422h10.771c2.549,0,5.715-1.788,7.03-3.983l9.072-15.096
			c1.07-2.215,1.034-5.434-0.19-7.475L77.067,414.121z"/>
		<radialGradient id="SVGID_3_" cx="40.7764" cy="352.4336" r="111.154" gradientUnits="userSpaceOnUse">
			<stop  offset="0" style="stop-color:#727272"/>
			<stop  offset="1" style="stop-color:#5F5F5F"/>
		</radialGradient>
		<path fill="url(#SVGID_3_)" d="M67.319,397.985c1.315,2.188,1.315,5.771,0,7.967l-23.95,40.042
			c-0.925,1.979,0.036,3.549,2.412,3.549h9.961l21.325-35.422L67.319,397.985z"/>
		<radialGradient id="SVGID_4_" cx="40.7744" cy="352.4355" r="111.1514" gradientUnits="userSpaceOnUse">
			<stop  offset="0" style="stop-color:#808080"/>
			<stop  offset="1" style="stop-color:#7C7C7C"/>
		</radialGradient>
		<path fill="url(#SVGID_4_)" d="M45.781,354.386c-2.559,0-3.573,1.795-2.259,3.983l38.902,64.62c1.225,2.041,1.261,5.26,0.19,7.475
			l9.457-15.741l-36.324-60.337H45.781z"/>
		<radialGradient id="SVGID_5_" cx="40.7783" cy="352.4355" r="111.1448" gradientUnits="userSpaceOnUse">
			<stop  offset="0" style="stop-color:#767676"/>
			<stop  offset="1" style="stop-color:#636363"/>
		</radialGradient>
		<path fill="url(#SVGID_5_)" d="M97.338,397.985l-23.795-39.616c-1.315-2.188-4.481-3.983-7.03-3.983H55.748l36.324,60.337
			l5.266-8.771C98.654,403.756,98.654,400.173,97.338,397.985z"/>
		<linearGradient id="SVGID_6_" gradientUnits="userSpaceOnUse" x1="88.2012" y1="414.2246" x2="61.4236" y2="414.2246">
			<stop  offset="0" style="stop-color:#202020;stop-opacity:0.2"/>
			<stop  offset="1" style="stop-color:#F2F2F2;stop-opacity:0.25"/>
		</linearGradient>
		<path fill="url(#SVGID_6_)" d="M82.425,422.989l-15.105-25.004c1.315,2.188,1.315,5.771,0,7.967l-5.317,8.854l20.613,15.657
			C83.686,428.249,83.649,425.03,82.425,422.989z"/>
	</g>
	<radialGradient id="SVGID_7_" cx="70.6367" cy="401.9648" r="38.9251" gradientUnits="userSpaceOnUse">
		<stop  offset="0" style="stop-color:#000000;stop-opacity:0.1"/>
		<stop  offset="0.0896" style="stop-color:#000000;stop-opacity:0.091"/>
		<stop  offset="1" style="stop-color:#000000;stop-opacity:0"/>
	</radialGradient>
	<path fill="url(#SVGID_7_)" d="M97.338,397.985l-23.795-39.616c-1.315-2.188-4.481-3.983-7.03-3.983H55.748h-9.967
		c-2.559,0-3.573,1.795-2.259,3.983l23.797,39.616c1.315,2.188,1.315,5.771,0,7.967l-23.95,40.042
		c-0.925,1.979,0.036,3.549,2.412,3.549h9.961h10.771c2.549,0,5.715-1.788,7.03-3.983l18.529-30.837l5.266-8.771
		C98.654,403.756,98.654,400.173,97.338,397.985z"/>
</g>
</svg>
