<svg xmlns="http://www.w3.org/2000/svg" xmlns:xlink="http://www.w3.org/1999/xlink" width="612" height="792" viewBox="0 0 612 792"><path fill="none" d="M189.04 357.382c1.503-1.036 1.527-1.955 1.445-2.992h-2.888c.01 1.472.214 2.75 1.442 2.992z"/><path fill="#E0E0E0" d="M181.534 414.647v.336c-.64-.265-1.253-.55-1.868-.747v-.542c.065-.774-2.895-.774-2.814 0 .973.265 1.326 1.17 2.814.953v-.392l1.868.74v.57c.906 1.6 3.073 3.936 5.627 2.35-.46-2.515-3.053-2.89-5.626-3.268zM189.972 420.73c1.847 1.345 4.997.908 6.103-.937-.552-2.274-6.854-3.115-6.103.938z"/><defs><path id="a" d="M589.892 397.988l-23.786-39.62c-1.315-2.187-4.483-3.982-7.04-3.982h-.08l-513.213.005c-2.377 0-3.33 1.57-2.403 3.548l23.95 40.04c1.315 2.198 1.315 5.778 0 7.966L43.522 445.56c-1.314 2.188-.298 3.983 2.25 3.983l513.292-.005c2.558 0 5.726-1.785 7.04-3.98l23.787-39.605c1.318-2.197 1.318-5.777.002-7.965z"/></defs><clipPath id="b"><use xlink:href="#a" overflow="visible"/></clipPath><g clip-path="url(#b)" fill="#E0E0E0"><path d="M400.77 261.1c.306.183.654.836 1.002 1.004 2.98 1.32 5.043.08 7.417-.5.914 1.247.914 3.38 2.968 3.468 1.682-.63 2.844-1.793 3.472-3.468-.99-1.11-1.91-2.847-3.973-2.974-1.51-.096-1.967.504-3.45.99-1.615-2.176-3.445-4.148-6.936-4.456-.915-1.868-1.937-3.642-4.937-3.454-1.872 2.442-1.07 5.45.486 7.41.356.447 3.343 1.595 3.95 1.98zM194.45 265.564h3.47c.26 1.543.878 2.764 1.485 3.956 1.37.36 1.51-1.124 1.98-1.995 2.028-3.73-.556-4.884-2.978-6.426.136-2.08-1.433-2.51-1.985-3.94-5.105-.474-4.298 6.62-1.973 8.404zM469.554 259.62c-1.367-3.31-8.472-1.908-10.87-.5-.727 8.405 10.318 6.38 10.87.5zM476.475 258.63c-.165-.998-1.79-1.186-3.45-.493-.1 3.34 3.717 1.923 3.45.493zM182.08 264.064c1.304-.51 2.22-1.41 2.47-2.965 1.184-.467 2.442-.87 1.988-2.964h-2.472c.068 2.55-3.253 1.707-4.45 2.963-.098 1.92.792 2.846 2.465 2.964zM360.712 266.555c1.188.136.927-.278 1.98-.99 1.79-1.24 1.703-1.305 2.47-2.978.413-.875 1.347-1.18.982-1.968-1.43-1.235-2.47 2.13-4.45 1.967-1.012-.634-.885-2.393-2.97-1.968-2.13 2.92-.2 5.656 1.988 5.935zM168.744 269.52c-.376 3.663 1.538 5.05 2.95 6.922 4.565-1.125 10.912 1.08 11.89-2.965.37-1.682-.752-1.195-1.503-2.484-.498-.83.128-2.542-1.467-2.455-2.067-.397-.942 2.37-2.982 1.965-1.48-1.148-2.09-3.173-2.97-4.938.418-1.396 1.607-2.037 1.49-3.96-2.123-1.504-3.65-.917-5.44 0-1.953.997-5.465 2.103-5.465 3.96.735 1.764 2.917 2.07 3.5 3.956zM354.28 268.026v-2.955c-1.42-1.153-3.74-.08-4.96.494.45 2.15 2.583 3.703 4.96 2.462zM473.52 269.018c.292-1.77-1.474-1.513-2.964-1.492-.68 2.233 1.993 2.413 2.965 1.492zM321.116 286.84c3.247-.215 1.855-5.062 4.454-5.952.648 1.334 1.067 2.897 3.464 2.487 1.862-3.33-3.075-3.735-2.965-6.934 2.686-.774 5.52-1.39 5.447-4.94-1.346-1.805-4.73-1.548-7.918-1.484-1.343.964-2.262 2.365-3.95 2.972-1.2.647-3.43.195-4.466.984-1.598 3.87 1.76 6.254 3.452 8.405.07 2.266 1.21 3.44 2.48 4.464zM185.05 417.458c-.483-2.65-3.216-3.05-5.932-3.445v.353c-.672-.278-1.32-.575-1.968-.79v-.567c.067-.817-3.054-.817-2.97 0 1.024.276 1.4 1.233 2.97 1.004v-.412l1.968.78v.6c.958 1.688 3.24 4.15 5.933 2.476zM188.017 420.428c1.944 1.416 5.27.957 6.433-.99-.577-2.402-7.226-3.285-6.433.99zM579.398 524.837h-.984c.278 4.875-3.58 5.67-2.482 11.37h-4.45c-1.445 1.537-2.642 3.48-4.44 4.944-3.245 2.652-9.33 3.595-7.433 9.407 5.074 2.314 6.6-3.566 8.404-5.435.24-.236 1.25-.336 1.498-.494.805-.544 1.105-1.187 1.468-1.99.07-.14.87-.342 1-.488 1.343-1.62 2.452-3.055 3.464-4.465 1.887-.203 3.57-1.444 4.452-2.47.517-.58.57-1.45.987-1.965 1.58-1.926 2.552-1.84 2.48-3.48-.125-2.29-2.826-2.65-3.965-4.933zM529.433 531.256c-1.49 1.388-2.136 5.21-.497 6.934 3.758.14 5.103-2.164 4.953-5.93-1.42-.425-3.07-.6-4.457-1.004z"/></g><text transform="translate(271.085 425.154)" fill="#4D4D4D" font-family="'OpenSans-Semibold'" font-size="64.708" letter-spacing="-3">Salamanca</text><g><g fill="#4D4D4D"><path d="M141.657 398.1h19.474v24.342c-5.29 1.814-11.096 2.713-17.444 2.713-6.95 0-12.323-2.014-16.126-6.046-3.804-4.033-5.693-9.796-5.693-17.273 0-7.277 2.073-12.94 6.236-17 4.158-4.06 9.98-6.062 17.472-6.062 2.844 0 5.518.256 8.033.8 2.534.528 4.734 1.2 6.608 2.017l-3.876 9.564c-3.245-1.604-6.818-2.403-10.71-2.403-3.546 0-6.305 1.172-8.25 3.476-1.958 2.315-2.915 5.616-2.915 9.923 0 4.22.87 7.435 2.645 9.65 1.743 2.216 4.273 3.305 7.593 3.305 1.816 0 3.487-.16 5.003-.52v-7.06h-8.048V398.1zM193.443 401.45c0-4.148-.814-7.208-2.443-9.21-1.63-1.986-4.134-2.988-7.463-2.988h-3.547v25.282h2.718c3.715 0 6.433-1.075 8.148-3.232 1.732-2.13 2.587-5.434 2.587-9.853m12.654-.43c0 7.522-2.058 13.328-6.218 17.403-4.134 4.074-9.966 6.105-17.474 6.105h-14.598V379.4h15.613c7.234 0 12.827 1.86 16.77 5.562 3.95 3.693 5.907 9.053 5.907 16.06M229.775 398.1h19.49v24.342c-5.29 1.814-11.11 2.713-17.444 2.713-6.948 0-12.325-2.014-16.13-6.046-3.788-4.033-5.687-9.796-5.687-17.273 0-7.277 2.07-12.94 6.23-17 4.148-4.06 9.98-6.062 17.475-6.062 2.83 0 5.52.256 8.05.8 2.502.528 4.706 1.2 6.575 2.017l-3.857 9.564c-3.245-1.604-6.822-2.403-10.71-2.403-3.56 0-6.306 1.172-8.263 3.476-1.933 2.315-2.905 5.616-2.905 9.923 0 4.22.873 7.435 2.63 9.65 1.76 2.216 4.29 3.305 7.606 3.305 1.816 0 3.492-.16 5.008-.52v-7.06h-8.066V398.1z"/></g></g><g><radialGradient id="c" cx="40.774" cy="352.434" r="111.155" gradientUnits="userSpaceOnUse"><stop offset="0" stop-color="#CECECE"/><stop offset="1" stop-color="#C3C3C3"/></radialGradient><path fill="url(#c)" d="M77.067 414.12l-21.325 35.423h10.77c2.55 0 5.716-1.788 7.03-3.983l9.073-15.096c1.07-2.215 1.034-5.434-.19-7.475l-5.358-8.87z"/><radialGradient id="d" cx="40.776" cy="352.434" r="111.154" gradientUnits="userSpaceOnUse"><stop offset="0" stop-color="#727272"/><stop offset="1" stop-color="#5F5F5F"/></radialGradient><path fill="url(#d)" d="M67.32 397.985c1.314 2.188 1.314 5.77 0 7.967l-23.95 40.042c-.926 1.98.035 3.55 2.41 3.55h9.962l21.325-35.423-9.748-16.135z"/><radialGradient id="e" cx="40.774" cy="352.435" r="111.151" gradientUnits="userSpaceOnUse"><stop offset="0" stop-color="gray"/><stop offset="1" stop-color="#7C7C7C"/></radialGradient><path fill="url(#e)" d="M45.78 354.386c-2.558 0-3.572 1.795-2.258 3.983l38.902 64.62c1.225 2.04 1.26 5.26.19 7.474l9.457-15.74-36.323-60.338H45.78z"/><radialGradient id="f" cx="40.778" cy="352.435" r="111.145" gradientUnits="userSpaceOnUse"><stop offset="0" stop-color="#767676"/><stop offset="1" stop-color="#636363"/></radialGradient><path fill="url(#f)" d="M97.338 397.985L73.543 358.37c-1.315-2.19-4.48-3.984-7.03-3.984H55.748l36.324 60.337 5.266-8.77c1.316-2.197 1.316-5.78 0-7.968z"/><linearGradient id="g" gradientUnits="userSpaceOnUse" x1="88.201" y1="414.225" x2="61.424" y2="414.225"><stop offset="0" stop-color="#202020" stop-opacity=".2"/><stop offset="1" stop-color="#F2F2F2" stop-opacity=".25"/></linearGradient><path fill="url(#g)" d="M82.425 422.99L67.32 397.984c1.315 2.188 1.315 5.77 0 7.967l-5.317 8.854 20.613 15.657c1.07-2.214 1.033-5.433-.19-7.474z"/><radialGradient id="h" cx="70.637" cy="401.965" r="38.925" gradientUnits="userSpaceOnUse"><stop offset="0" stop-opacity=".1"/><stop offset=".09" stop-opacity=".091"/><stop offset="1" stop-opacity="0"/></radialGradient><path fill="url(#h)" d="M97.338 397.985L73.543 358.37c-1.315-2.19-4.48-3.984-7.03-3.984H45.78c-2.558 0-3.572 1.795-2.258 3.983l23.797 39.615c1.314 2.188 1.314 5.77 0 7.967l-23.95 40.042c-.926 1.98.035 3.55 2.41 3.55h20.732c2.55 0 5.716-1.79 7.03-3.984l18.53-30.837 5.266-8.77c1.316-2.197 1.316-5.78 0-7.968z"/></g></svg>