<?xml version="1.0" encoding="utf-8"?>
<!-- Generator: Adobe Illustrator 18.1.1, SVG Export Plug-In . SVG Version: 6.00 Build 0)  -->
<svg version="1.1" id="Capa_1" xmlns="http://www.w3.org/2000/svg" xmlns:xlink="http://www.w3.org/1999/xlink" x="0px" y="0px"
	 viewBox="0 0 1000 1000" enable-background="new 0 0 1000 1000" xml:space="preserve">
<g>
	<g>
		<g>
			<path fill="#C74235" d="M696.6,419.8l25.4-31.2l-42.5-34.5l-25.4,31.2l6.4-39.7l-54.1-8.7l-6.4,39.7L585.7,339l-51.2,19.5
				l50.8,133c5.4,14.1,21.2,21.2,35.3,15.8l133-50.8l-19.5-51.2L696.6,419.8z M680.2,361.8l34,27.6l-27.9,34.3l-81.8,31.2
				L680.2,361.8z M610.9,343.2l43.3,6.9l-7,43.6l-55.2,67.9L610.9,343.2z M541.6,361.7l40.9-15.6l15.8,41.3l-13.9,86.5L541.6,361.7z
				 M618.7,502.3c-11.3,4.3-24-1.4-28.3-12.7c-1.3-3.5-1.7-7.2-1.2-10.7l0,0l0.2-1c0.6-3.5,2.1-6.8,4.3-9.7l0.8-1
				c2.3-2.6,5.2-4.7,8.6-6L731,412.6l15.6,40.9L618.7,502.3z M618.7,502.3"/>
			<path fill="#C74235" d="M606,469c-7.1,2.7-10.6,10.6-7.9,17.7c2.7,7.1,10.6,10.6,17.7,7.9c7.1-2.7,10.6-10.6,7.9-17.7
				C621,469.9,613,466.3,606,469L606,469z M613.8,489.5c-4.2,1.6-9-0.5-10.6-4.7c-1.6-4.2,0.5-9,4.7-10.6s9,0.5,10.6,4.7
				C620.2,483.1,618,487.9,613.8,489.5L613.8,489.5z M613.8,489.5"/>
		</g>
		
			<rect x="547.4" y="377.3" transform="matrix(0.9343 -0.3565 0.3565 0.9343 -97.8639 228.6938)" fill="#C74235" width="48.2" height="5"/>
		
			<rect x="558.6" y="407.2" transform="matrix(0.9343 -0.3565 0.3565 0.9343 -107.9749 233.6281)" fill="#C74235" width="42.4" height="5"/>
		
			<rect x="571.7" y="439.8" transform="matrix(0.9343 -0.3565 0.3565 0.9343 -119.3695 236.9546)" fill="#C74235" width="23" height="5"/>
		
			<rect x="603.9" y="372.7" transform="matrix(0.9873 0.159 -0.159 0.9873 67.6359 -95.053)" fill="#C74235" width="48.2" height="5"/>
		
			<rect x="598.8" y="402.8" transform="matrix(0.9858 0.1682 -0.1682 0.9858 76.9801 -98.4326)" fill="#C74235" width="41.7" height="5"/>
		
			<rect x="596" y="432.5" transform="matrix(0.9885 0.1513 -0.1513 0.9885 72.7746 -86.6875)" fill="#C74235" width="20.5" height="5"/>
		
			<rect x="656" y="394.9" transform="matrix(0.7759 0.6308 -0.6308 0.7759 403.1116 -339.9589)" fill="#C74235" width="48.2" height="5"/>
		
			<rect x="636.5" y="417.2" transform="matrix(0.7809 0.6247 -0.6247 0.7809 405.8302 -317.5094)" fill="#C74235" width="38" height="5"/>
		
			<rect x="618.8" y="436.1" transform="matrix(0.7785 0.6276 -0.6276 0.7785 414.5537 -297.5405)" fill="#C74235" width="20.2" height="5"/>
		
			<rect x="708" y="421.3" transform="matrix(0.9343 -0.3565 0.3565 0.9343 -112.1026 282.5485)" fill="#C74235" width="5" height="48.2"/>
		
			<rect x="678.7" y="432.4" transform="matrix(0.9343 -0.3565 0.3565 0.9343 -117.5932 272.7762)" fill="#C74235" width="5" height="46"/>
		
			<rect x="649.2" y="443.4" transform="matrix(0.9343 -0.3565 0.3565 0.9343 -123.5902 263.0071)" fill="#C74235" width="5" height="46.7"/>
	</g>
	<path fill="#C74235" d="M564,617.9c-1.2,0-2.6-0.6-3.2-1.4c-0.3-0.4-0.6-1.1-0.3-2.4c1.9-6.9,5.1-13.6,8.1-20.1
		c5.4-11.4,11-23.3,10.8-37.3c-0.2-11.4-3.9-21.9-11-31.4l-0.2-0.2l-22.4-23.9c-3.7-5.7-13.5-20.8-13.5-20.8l-2.4-3.7l-4.1,1.6
		c-4.7,1.9-9.7,2.8-14.9,2.8c-13.9,0-26.7-6.9-34.2-18.5l-4.4-7c-1.7-3.2,0.3-4.9,1-5.3l11.9-7.7l-15.8-24.4
		c-1.1-1.7-0.6-4.1,1.1-5.2c0.6-0.4,1.3-0.6,2-0.6c1.3,0,2.4,0.6,3.1,1.7l15.8,24.4l25.7-16.6l-15.8-24.5c-0.6-0.9-0.7-1.8-0.5-2.8
		c0.2-1,0.8-1.8,1.6-2.3c0.6-0.4,1.3-0.6,2.1-0.6c1.3,0,2.4,0.6,3.1,1.7l15.8,24.4l11.9-7.7c0.6-0.4,1.3-0.6,2-0.6
		c1.3,0,2.4,0.6,3.1,1.7l4.6,7.2c5.9,9.1,7.9,20,5.7,30.6c-1.7,7.9-5.6,15-11.3,20.6l-3.2,3.1l15.9,24.6c0.2,0.5,0.5,0.9,0.8,1.3
		c2.6,3,5.4,6,8.1,8.9c4.1,4.4,8.4,9,11.9,13.6c7,9,10.8,17.8,12.2,27.7c1.7,12,0.4,23.8-3.6,33.3c-1.7,4-3.6,7.9-5.5,11.7
		c-3.4,6.9-7,14-9.3,22.1C566.5,616.8,565.9,617.9,564,617.9z M480.5,454.5l2.5,4.1c6.1,9.5,16.6,15.1,27.9,15.1
		c6.4,0,12.7-1.9,18.1-5.4c7.4-4.8,12.6-12.3,14.4-21c1.8-8.7,0.2-17.6-4.6-25l-2.5-4.1L480.5,454.5z"/>
	<path fill="#C74235" d="M485.3,615.9c-0.7-5.4-4.2-12.9-10.1-21.5l-0.1-0.1l-0.1-0.1c-2.2-2.4-4.4-4.9-6-8
		c-0.1-0.3-0.2-0.4-0.3-0.5c-0.1-0.2-0.2-0.3-0.3-0.4l0-0.1l0-0.1c-4.2-7.2-6.4-15.5-6.4-23.8c0-26.5,21.6-48.1,48.1-48.1l0.4,0
		c26.3,0,47.7,21.5,47.7,47.9c0,8-2.1,16.2-6.2,23.5l-0.1,0.2l-0.1,0.2c-0.1,0.4-0.3,0.7-0.6,1.1l-0.1,0.1l-0.4,0.6
		c-1.7,2.6-3.3,4.9-5.2,6.8l-0.1,0.1l-0.1,0.1c-6.9,9.6-10.6,18-10.7,23.8L485.3,615.9z M528.5,615.1l0.4-1.8
		c1.6-8.1,7.2-17.2,11.6-23.3l0.1-0.2l0.1-0.1l0.2-0.1l0.2-0.2c1.7-1.7,3.3-3.9,4.6-6.2l0.1-0.2l0.1-0.2l0.1-0.2l0.1-0.2l0.2-0.3
		c3.7-6.1,5.6-13.3,5.6-20.9c0-23-18.7-41.7-41.7-41.7s-41.7,18.7-41.7,41.7c0,7.2,2,14.5,5.7,21v0.2l0.4,0.6c1.6,2.5,3.4,4.9,5.3,7
		l0.1,0.1l0.3,0.3c6.2,8.9,10,16.6,11.3,22.9l0.4,1.8h23H528.5z"/>
	<path fill="#C74235" d="M518.1,619.6c-1.4,0-2.4-0.9-2.4-2.4v-42.1h-10.9v42.1c0,1.4-0.9,2.4-2.4,2.4c-1.4,0-2.4-0.9-2.4-2.4v-42.1
		h-5.5c-5.6,0-10.2-4.6-10.2-10.2c0-5.6,4.6-10.2,10.2-10.2c5.6,0,10.2,4.6,10.2,10.2v5.5h10.9v-5.5c0-5.6,4.6-10.2,10.2-10.2
		c5.6,0,10.2,4.6,10.2,10.2c0,5.6-4.6,10.2-10.2,10.2h-5.5v42.1C520.4,618.7,519.5,619.6,518.1,619.6z M525.9,570.4
		c3,0,5.5-2.5,5.5-5.5c0-3-2.5-5.5-5.5-5.5c-3,0-5.5,2.5-5.5,5.5v5.5H525.9z M494.5,559.5c-3,0-5.5,2.5-5.5,5.5c0,3,2.5,5.5,5.5,5.5
		h5.5v-5.5C500,561.9,497.5,559.5,494.5,559.5z"/>
	<path fill="#C74235" d="M518.1,618.7c-0.9,0-1.5-0.5-1.5-1.5v-43h-12.8v43c0,0.9-0.5,1.5-1.5,1.5c-0.9,0-1.5-0.5-1.5-1.5v-43h-6.4
		c-5.1,0-9.3-4.2-9.3-9.3c0-5.1,4.2-9.3,9.3-9.3c5.1,0,9.3,4.2,9.3,9.3v6.4h12.8v-6.4c0-5.1,4.2-9.3,9.3-9.3c5.1,0,9.3,4.2,9.3,9.3
		c0,5.1-4.2,9.3-9.3,9.3h-6.4v43C519.5,618.2,519,618.7,518.1,618.7z M525.9,558.6c-3.5,0-6.4,2.9-6.4,6.4v6.4h6.4
		c3.5,0,6.4-2.9,6.4-6.4C532.3,561.4,529.4,558.6,525.9,558.6z M494.5,558.6c-3.5,0-6.4,2.9-6.4,6.4c0,3.5,2.9,6.4,6.4,6.4h6.4v-6.4
		C500.9,561.4,498,558.6,494.5,558.6z"/>
	<path fill="#C74235" d="M518.1,618.5c-0.2,0-0.6,0-0.8-0.2l-0.1-0.1l-0.1-0.1c-0.2-0.3-0.2-0.6-0.2-0.8V574h-13.2v43.2
		c0,0.2,0,0.6-0.3,0.9l-0.1,0.1l-0.1,0.1c-0.3,0.2-0.6,0.2-0.8,0.2c-0.2,0-0.6,0-0.8-0.2l-0.1-0.1l-0.1-0.1
		c-0.2-0.3-0.2-0.6-0.2-0.8V574h-6.6c-5,0-9.1-4.1-9.1-9.1c0-5,4.1-9.1,9.1-9.1c5,0,9.1,4.1,9.1,9.1v6.6h13.2v-6.6
		c0-5,4.1-9.1,9.1-9.1s9.1,4.1,9.1,9.1c0,5-4.1,9.1-9.1,9.1h-6.6v43.2c0,0.2,0,0.6-0.3,0.9l-0.1,0.1l-0.1,0.1
		C518.6,618.4,518.3,618.5,518.1,618.5z M525.9,571.5c3.6,0,6.6-3,6.6-6.6s-3-6.6-6.6-6.6c-3.6,0-6.6,3-6.6,6.6v6.6H525.9z
		 M494.5,558.3c-3.6,0-6.6,3-6.6,6.6s3,6.6,6.6,6.6h6.6v-6.6C501.1,561.3,498.2,558.3,494.5,558.3z"/>
	<path fill="#C74235" d="M518.1,617.6c-0.2,0-0.3,0-0.3-0.1c0,0,0-0.1,0-0.3v-44.1h-15v44.1c0,0.2,0,0.3-0.1,0.3c0,0-0.1,0-0.3,0
		c-0.2,0-0.3,0-0.3-0.1c0,0,0-0.1,0-0.3v-44.1h-7.5c-4.5,0-8.2-3.7-8.2-8.2c0-4.5,3.7-8.2,8.2-8.2c4.5,0,8.2,3.7,8.2,8.2v7.5h15
		v-7.5c0-4.5,3.7-8.2,8.2-8.2c4.5,0,8.2,3.7,8.2,8.2c0,4.5-3.7,8.2-8.2,8.2h-7.5v44.1c0,0.2,0,0.3-0.1,0.3
		C518.3,617.5,518.2,617.6,518.1,617.6z M525.9,557.4c-4.1,0-7.5,3.4-7.5,7.5v7.5h7.5c4.1,0,7.5-3.4,7.5-7.5
		C533.4,560.8,530.1,557.4,525.9,557.4z M494.5,557.4c-4.1,0-7.5,3.4-7.5,7.5c0,4.1,3.4,7.5,7.5,7.5h7.5v-7.5
		C502,560.8,498.7,557.4,494.5,557.4z"/>
	<path fill="#C74235" d="M364.9,618c-5-11.1-9.8-22.2-14.5-33.4c-0.5,1.3-1.1,2.7-1.6,4c11.6-4.2,23.3-8.5,34.9-12.7
		c1.7-0.6,3.3-1.2,5-1.8c-1.1-0.6-2.3-1.3-3.4-1.9c5.1,15.3,10,30.6,14.6,46c0.9-1.2,1.8-2.3,2.6-3.5c-11.6,0.6-23.3,1.1-34.9,1.7
		c-1.7,0.1-3.4,0.2-5.1,0.3c-3.5,0.2-3.5,5.7,0,5.5c11.6-0.6,23.3-1.1,34.9-1.7c1.7-0.1,3.4-0.2,5.1-0.3c1.7-0.1,3.2-1.7,2.6-3.5
		c-4.7-15.4-9.5-30.7-14.6-46c-0.4-1.3-1.9-2.4-3.4-1.9c-11.6,4.2-23.3,8.5-34.9,12.7c-1.7,0.6-3.3,1.2-5,1.8
		c-1.8,0.7-2.4,2.3-1.6,4c4.7,11.2,9.6,22.3,14.5,33.4C361.6,624,366.3,621.2,364.9,618z"/>
	<path fill="#C74235" d="M346.8,576.6c-2.5-6.1-5-12.3-7.4-18.5c-0.6,1.1-1.3,2.3-1.9,3.4c12.2-4.4,24.3-8.8,36.5-13.3
		c1.8-0.6,3.5-1.3,5.3-1.9c-1.1-0.6-2.3-1.3-3.4-1.9c2.2,6.2,4.4,12.5,6.6,18.8c0.6-1.1,1.3-2.3,1.9-3.4c-12,4.3-23.9,8.7-35.9,13
		c-1.7,0.6-3.4,1.2-5.1,1.8c-3.3,1.2-1.9,6.5,1.5,5.3c12-4.3,23.9-8.7,35.9-13c1.7-0.6,3.4-1.2,5.1-1.8c1.3-0.5,2.4-1.9,1.9-3.4
		c-2.2-6.3-4.4-12.5-6.6-18.8c-0.5-1.3-1.9-2.5-3.4-1.9c-12.2,4.4-24.3,8.8-36.5,13.3c-1.8,0.6-3.5,1.3-5.3,1.9
		c-1.3,0.5-2.5,1.9-1.9,3.4c2.4,6.2,4.9,12.3,7.4,18.5C342.8,581.2,348.1,579.8,346.8,576.6z"/>
	<path fill="#C74235" d="M333.9,547.6c-12.7-10-22.9-23.4-23.7-40c-0.7-13.6,4.5-26.8,11.8-38.1c3.7-5.8,8.1-11.3,12.9-16.3
		c0.6-0.6,1.1-1.2,1.7-1.7c0.1-0.1,0.5-0.4,0.6-0.6c0-0.1,0.1-0.1,0.2-0.1c0,0,0.1-0.1,0.1-0.1c0.4-0.4-0.1-0.6-1.4-0.6
		c-0.4,0.2-0.7,2.2-0.8,2.7c-0.3,1.1-0.5,2.2-0.6,3.3c-0.2,1.8-0.2,3.6,0.1,5.3c1.2,7.3,6.9,12.5,12.5,16.8c5.2,4,10.7,7.6,15.6,12
		c4.9,4.4,9.3,9.6,11.4,16c2.9,8.7,1.6,18-1,26.7c0.6-0.6,1.3-1.3,1.9-1.9c-12.8,4.7-25.6,9.3-38.5,14c-1.8,0.7-3.7,1.3-5.5,2
		c-3.3,1.2-1.9,6.5,1.5,5.3c11.8-4.3,23.6-8.6,35.4-12.9c2.4-0.9,4.8-1.7,7.2-2.6c0.4-0.2,0.9-0.3,1.3-0.5c2.6-1.2,2.9-5.2,3.5-7.7
		c2.3-10.8,1.7-22.2-4.3-31.8c-4.9-7.7-12.2-13.3-19.5-18.6c-4.6-3.4-9.7-6.7-13.2-11.2c-3.3-4.3-3.7-9.2-2.1-14.3
		c1-3,0.2-6.5-3.4-7c-1.9-0.3-3.3,0.6-4.6,1.8c-2.6,2.4-4.9,5.1-7.2,7.8c-7.5,9-13.8,19.1-17.7,30.3c-3.1,9.1-4.3,18.8-2.7,28.3
		c1.9,11.6,8.1,22,16.2,30.3c2.6,2.7,5.5,5.2,8.5,7.5C332.8,553.6,336.7,549.8,333.9,547.6z"/>
	<g>
		<path fill="#C74235" d="M443.5,464.7c-10.1,6.3-20.1,12.5-30.2,18.8c-4.2,2.6-8.4,5.3-12.7,7.9c-1.1,0.7-2.2,0.4-2.9-0.7
			c-0.6-0.9-1.2-1.8-1.7-2.8c-6.2-10-12.4-20-18.6-29.9c-8.3-13.3-16.5-26.5-24.8-39.8c-3.1-4.9-6.1-9.8-9.2-14.7
			c-1.4-2.2-3-4.4-4.2-6.8c-0.8-1.5,0.2-2.3,1.3-3c1.8-1.1,3.7-2.3,5.5-3.4c6.3-3.9,12.6-7.9,19-11.8c5.3-3.3,10.7-6.6,16-10
			c1.3-0.8,3-2.3,4.2-0.6c0.3,0.4,0.6,1,0.9,1.4c5.6,8.9,11.1,17.9,16.7,26.8c8.3,13.4,16.6,26.7,25,40.1
			c5.2,8.4,10.5,16.8,15.7,25.2C444.2,462.6,444.9,463.8,443.5,464.7c-1.8,1.3,0,4.2,1.8,2.9c2.6-1.8,3-4.9,1.4-7.5
			c-0.6-1-1.2-2-1.9-3c-2.7-4.3-5.3-8.6-8-12.9c-8.2-13.2-16.5-26.5-24.7-39.7c-6.9-11.1-13.9-22.3-20.8-33.4
			c-0.8-1.3-1.6-2.6-2.4-3.9c-0.7-1.1-1.3-2.1-2.4-2.8c-2.4-1.5-4.7-0.4-6.8,0.9c-2.1,1.3-4.3,2.7-6.4,4
			c-11.5,7.2-23.1,14.4-34.6,21.6c-0.4,0.2-0.7,0.4-1.1,0.7c-2.2,1.6-2.6,4.5-1.3,6.8c0.3,0.5,0.7,1.1,1,1.6
			c2.2,3.6,4.5,7.2,6.7,10.7c8,12.8,16,25.7,24,38.5c7.5,12,14.9,23.9,22.4,35.9c1.6,2.5,3.1,5,4.7,7.5c1.6,2.5,4.6,3.3,7.3,1.8
			c1.4-0.8,2.7-1.7,4-2.5c12.1-7.5,24.1-15,36.2-22.5c1-0.6,2-1.2,3-1.8C447.2,466.5,445.4,463.6,443.5,464.7z"/>
		<path fill="#C74235" d="M406.8,414.6c-11,6.9-22,13.7-33.1,20.6c-1.3,0.8-3.3,2.6-4.6,0.8c-1-1.3-1.8-2.9-2.7-4.3
			c-4.3-6.8-8.5-13.7-12.8-20.5c-1.9-3.1-3.8-6.2-5.7-9.2c-0.9-1.4-1.9-2.7-2.6-4.2c-1-2,1.6-3,2.9-3.9c2.9-1.8,5.8-3.6,8.7-5.4
			c6.8-4.2,13.6-8.5,20.4-12.7c1.3-0.8,2.7-2,4.1-2.5c1.9-0.7,3,2.1,3.7,3.3c7.3,11.8,14.8,23.4,22,35.3
			C407.7,412.8,407.9,413.9,406.8,414.6c-1.8,1.3,0,4.2,1.8,2.9c2.4-1.7,3.1-4.6,1.6-7.1c-0.3-0.5-0.6-1-0.9-1.4
			c-1.7-2.7-3.3-5.3-5-8c-4.6-7.4-9.2-14.8-13.8-22.2c-1.3-2.1-2.6-4.1-3.9-6.2c-1.8-2.8-4.8-3.6-7.7-1.9
			c-5.9,3.6-11.7,7.3-17.6,10.9c-5.7,3.6-11.5,7-17.1,10.7c-2.8,1.8-3.4,5-1.6,7.7c1.4,2.2,2.7,4.3,4.1,6.5
			c4.6,7.4,9.2,14.7,13.7,22.1c1.6,2.6,3.3,5.2,4.9,7.9c0.3,0.5,0.5,0.9,0.8,1.4c1.6,2.4,4.6,3.1,7.1,1.6c5.1-2.9,10-6.3,15-9.4
			c6.4-4,12.8-7.9,19.1-11.9c0.4-0.2,0.8-0.5,1.2-0.7C410.5,416.3,408.7,413.4,406.8,414.6z"/>
		<path fill="#C74235" d="M423.4,443c4.3,7,3.9,16.2-1.2,22.7c-5.2,6.5-14,9.2-21.9,6.6c-7.9-2.6-13.4-10.1-13.6-18.4
			c-0.2-8.3,5-16.1,12.8-19C408.4,431.7,418.3,435.1,423.4,443c1.2,1.9,4.1,0.1,2.9-1.8c-5.2-8.2-14.9-12.4-24.4-10.5
			c-9.5,1.9-17.1,10.1-18.3,19.7c-1.2,9.7,3.7,19.4,12.5,23.8c8.7,4.4,19.3,2.8,26.5-3.8c8.1-7.5,9.5-19.9,3.8-29.2
			C425.1,439.3,422.2,441.1,423.4,443z"/>
		<path fill="#C74235" d="M412.9,450.1c2,3.4,1.1,7.7-2.3,9.8c-3.3,2.1-7.8,1-9.8-2.3c-2.1-3.3-1-7.8,2.3-9.8
			C406.4,445.7,410.7,446.9,412.9,450.1c1.2,1.8,4.1,0,2.9-1.8c-2.4-3.7-6.7-5.6-11.1-4.7c-4.3,0.8-7.7,4.5-8.3,8.8
			c-0.6,4.4,1.6,8.8,5.6,10.9c3.9,2,8.8,1.3,12-1.6c3.7-3.4,4.3-9,1.8-13.3C414.6,446.4,411.7,448.2,412.9,450.1z"/>
	</g>
	<g>
		<g>
			<path fill="#C74235" d="M622,320.3c-0.3,0.1-0.7,0.2-1,0.2c-0.1,0-0.3,0-0.4,0c-0.1,0-0.2,0-0.3,0l-83,1.1c-0.9,0-1.7,0-2.6,0.1
				c-1.7,0-3.5,0.1-5.3,0c-3.5-0.1-5.8-2.7-5.9-6.6l-0.9-67.7c0-0.3,0-0.7,0-1c0-0.7,0-1.4,0-2.1c0.1-2.7,1.8-4.9,4.4-5.6
				c0.6-0.2,1.2-0.3,1.8-0.3c7.3-0.1,14.7-0.2,21.9-0.3c3.6,0,7.3-0.1,10.9-0.1l45.9-0.6c1.3,0,2.5,0,3.8-0.1c2.5,0,5.1-0.1,7.6-0.1
				c3.6,0,6.2,2.3,6.4,5.7c0,0.7,0,1.4,0,2.1c0,0.3,0,0.7,0,1l0.9,67.7C626.4,317.1,624.7,319.6,622,320.3z M620.5,315.5
				c0.1,0,0.2,0,0.3,0c0.4-0.1,0.5-0.5,0.5-1.8c0-0.1,0-0.2,0-0.4l-0.8-60.2c0-1.1,0-2.2,0-3.3c0-2.1,0.1-4.4-0.1-6.5
				c-0.1-0.7-0.2-0.8-1.8-0.8l-89.5,1.2c-0.2,0-0.4,0-0.6,0.1c-0.4,0.1-0.6,0.3-0.6,0.9c-0.1,2.5,0,5.2,0.1,7.7
				c0,1.3,0.1,2.6,0.1,3.9l0.8,58.8c0,1.4,0.4,1.5,0.9,1.5c0.6,0,1.3,0,1.9,0c0.3,0,0.7,0,1,0L620.5,315.5z"/>
			<path fill="#C74235" d="M620.6,316.4c-8.8,0.1-17.6,0.2-26.4,0.4c-15.4,0.2-30.9,0.4-46.3,0.6c-5.1,0.1-10.1,0.1-15.2,0.2
				c-1,0-2,0.1-3,0c-1.5-0.1-1.8-1.2-1.8-2.4c-0.2-12.2-0.3-24.5-0.5-36.7c-0.1-7.4-0.2-14.8-0.3-22.1c-0.1-3.9-0.3-7.8-0.2-11.6
				c0.1-1.4,1-1.9,2.2-1.9c1.3,0,2.7,0,4-0.1c5.5-0.1,11-0.1,16.5-0.2c15.5-0.2,31-0.4,46.6-0.6c5.9-0.1,11.8-0.2,17.6-0.2
				c1.6,0,3.1,0,4.7-0.1c1.2,0,2.6-0.1,2.8,1.6c0.3,3.2,0.1,6.6,0.1,9.8c0.1,7.2,0.2,14.5,0.3,21.7c0.2,12.8,0.3,25.6,0.5,38.5
				C622.2,314.5,622.4,316.3,620.6,316.4c-2.1,0.1-2.1,3.4,0,3.3c3.3-0.2,4.9-2.8,4.8-5.8c0-1.8,0-3.5-0.1-5.3
				c-0.1-6.8-0.2-13.6-0.3-20.4c-0.2-14-0.4-28-0.6-42c0-1,0-2,0-3c-0.2-3-2.6-4.9-5.5-4.8c-3.8,0-7.6,0.1-11.4,0.2
				c-15.3,0.2-30.6,0.4-45.9,0.6c-10.9,0.1-21.9,0.2-32.8,0.4c-2.9,0.1-5.3,1.9-5.3,5c0,1,0,2,0,3c0.1,5.9,0.2,11.7,0.2,17.6
				c0.2,14.9,0.4,29.9,0.6,44.8c0,1.8,0,3.5,0.1,5.3c0,3,1.7,5.6,5,5.7c2.6,0.1,5.3-0.1,7.9-0.1c14.7-0.2,29.4-0.4,44-0.6
				c12.4-0.2,24.8-0.3,37.2-0.5c0.7,0,1.3,0,2,0C622.7,319.6,622.7,316.4,620.6,316.4z"/>
			<path fill="#C74235" d="M623.5,261.2c-0.2,0.1-0.4,0.1-0.7,0.1l-0.1,0c-2.6,0.2-5.3,0.1-7.9,0.1c-1.3,0-2.6,0-3.9,0l-84.9,1.1
				c-1.3,0-2.3-0.8-2.5-2.2c-0.2-1.3,0.5-2.5,1.7-2.8c0.2-0.1,0.4-0.1,0.7-0.1l0.1,0c2.6-0.2,5.3-0.1,7.9-0.1c1.3,0,2.6,0,3.9,0
				l84.9-1.1c1.3,0,2.3,0.8,2.5,2.2C625.4,259.6,624.7,260.8,623.5,261.2L623.5,261.2z"/>
			<path fill="#C74235" d="M526,261.6c3.2,0,6.4-0.1,9.6-0.1c7.7-0.1,15.4-0.2,23.2-0.3c9.3-0.1,18.6-0.2,27.9-0.4
				c8.1-0.1,16.2-0.2,24.2-0.3c3.9-0.1,7.8,0.1,11.7-0.2c0.1,0,0.1,0,0.2,0c2.1,0,2.1-3.3,0-3.3c-3.2,0-6.4,0.1-9.6,0.1
				c-7.7,0.1-15.4,0.2-23.2,0.3c-9.3,0.1-18.6,0.2-27.9,0.4c-8.1,0.1-16.2,0.2-24.2,0.3c-3.9,0.1-7.8-0.1-11.7,0.2
				c-0.1,0-0.1,0-0.2,0C523.9,258.4,523.9,261.7,526,261.6L526,261.6z"/>
			<g>
				<path fill="#C74235" d="M535.1,253.7c-0.3,0.1-0.5,0.1-0.8,0.1c-0.9,0-1.7-0.3-2.3-0.9c-0.6-0.6-1-1.4-1-2.3
					c0-1.5,0.9-2.8,2.4-3.2c0.3-0.1,0.5-0.1,0.8-0.1c1.8,0,3.2,1.4,3.3,3.2C537.5,252,536.5,253.3,535.1,253.7z"/>
				<circle fill="#C74235" cx="534.2" cy="250.5" r="2.3"/>
				<path fill="#C74235" d="M543.1,253.5c-0.3,0.1-0.5,0.1-0.8,0.1c-0.9,0-1.7-0.3-2.3-0.9c-0.6-0.6-1-1.4-1-2.3
					c0-1.5,0.9-2.8,2.4-3.2c0.3-0.1,0.5-0.1,0.8-0.1c0.9,0,1.7,0.3,2.3,0.9c0.6,0.6,1,1.4,1,2.3
					C545.4,251.9,544.5,253.2,543.1,253.5z"/>
				<circle fill="#C74235" cx="542.2" cy="250.4" r="2.3"/>
				<path fill="#C74235" d="M551,253.4c-0.3,0.1-0.5,0.1-0.8,0.1c-0.9,0-1.7-0.3-2.3-0.9c-0.6-0.6-1-1.4-1-2.3
					c0-1.5,0.9-2.8,2.4-3.2c0.3-0.1,0.5-0.1,0.8-0.1c1.8,0,3.2,1.4,3.3,3.2C553.4,251.8,552.4,253,551,253.4z"/>
				<circle fill="#C74235" cx="550.1" cy="250.3" r="2.3"/>
			</g>
		</g>
		<g>
			<path fill="#C74235" d="M560,302.9c-0.3,0.1-0.5,0.1-0.8,0.1c-0.8,0-1.6-0.3-2.2-0.9l-10.7-10.4c-0.6-0.6-0.9-1.4-0.9-2.2
				c0-0.8,0.3-1.6,0.9-2.2l10.4-10.7c0.4-0.4,0.9-0.7,1.4-0.8c0.3-0.1,0.5-0.1,0.8-0.1c0.8,0,1.6,0.3,2.2,0.9
				c1.2,1.2,1.2,3.2,0.1,4.4l-8.2,8.4l8.4,8.2c1.2,1.2,1.2,3.2,0.1,4.4C561,302.5,560.6,302.8,560,302.9z"/>
			<path fill="#C74235" d="M559.2,302.1c-0.6,0-1.1-0.2-1.6-0.6L547,291.1c-0.4-0.4-0.7-1-0.7-1.5c0-0.6,0.2-1.1,0.6-1.6l10.4-10.7
				c0.4-0.4,1-0.7,1.5-0.7c0.6,0,1.1,0.2,1.6,0.6c0.9,0.8,0.9,2.2,0,3.1l-8.9,9.1l9.1,8.9c0.9,0.8,0.9,2.2,0,3.1
				C560.4,301.9,559.8,302.1,559.2,302.1z"/>
			<path fill="#C74235" d="M591.2,302.5c-0.3,0.1-0.5,0.1-0.8,0.1c-0.8,0-1.6-0.3-2.2-0.9c-1.2-1.2-1.3-3.2-0.1-4.4l8.2-8.4
				l-8.4-8.2c-1.2-1.2-1.3-3.2-0.1-4.4c0.4-0.4,0.9-0.7,1.4-0.8c0.3-0.1,0.5-0.1,0.8-0.1c0.8,0,1.6,0.3,2.2,0.9l10.7,10.4
				c0.6,0.6,0.9,1.4,0.9,2.2c0,0.8-0.3,1.6-0.9,2.2l-10.4,10.7C592.2,302.1,591.7,302.3,591.2,302.5z"/>
			<path fill="#C74235" d="M590.4,301.7c-0.6,0-1.1-0.2-1.6-0.6c-0.9-0.8-0.9-2.2,0-3.1l8.9-9.1l-9.1-8.9c-0.9-0.8-0.9-2.2,0-3.1
				c0.4-0.4,1-0.7,1.5-0.7c0.6,0,1.1,0.2,1.6,0.6l10.7,10.4c0.4,0.4,0.7,1,0.7,1.5c0,0.6-0.2,1.1-0.6,1.6L591.9,301
				C591.5,301.4,591,301.7,590.4,301.7z"/>
			<path fill="#C74235" d="M571.5,311.2c-0.3,0.1-0.5,0.1-0.8,0.1c-0.2,0-0.4,0-0.6-0.1c-0.8-0.1-1.5-0.6-2-1.3
				c-0.5-0.7-0.6-1.5-0.5-2.3l6.9-38c0.2-1.2,1.1-2.1,2.2-2.4c0.3-0.1,0.5-0.1,0.8-0.1c0.2,0,0.4,0,0.6,0.1c1.7,0.3,2.8,1.9,2.5,3.6
				l-6.9,38C573.5,309.9,572.6,310.9,571.5,311.2z"/>
			<path fill="#C74235" d="M570.7,310.4c-0.1,0-0.3,0-0.4,0c-0.6-0.1-1.1-0.4-1.4-0.9c-0.3-0.5-0.5-1.1-0.4-1.6l6.9-38
				c0.2-1,1.1-1.8,2.1-1.8c0.1,0,0.3,0,0.4,0c1.2,0.2,2,1.4,1.8,2.5l-6.9,38C572.6,309.6,571.8,310.4,570.7,310.4z"/>
		</g>
	</g>
	<g>
		<path fill="#C74235" d="M615.2,211.2c4.3-10.1,16-14.8,26.1-10.5c10.1,4.3,14.8,16,10.5,26.1l-4.3,10.1
			c-3.6,8.5,0.3,18.3,8.8,21.9c7.2,3.1,15.4,0.8,20-5.4l3,1.3c-5.3,7.8-15.4,10.8-24.2,7.1c-10.1-4.3-14.8-16-10.5-26.1l4.3-10.1
			c3.6-8.5-0.3-18.3-8.8-21.9c-8.5-3.6-18.3,0.3-21.9,8.8l-4.2,9.9c-0.5-0.2-1-0.4-1.5-0.7c-0.5-0.2-1-0.4-1.5-0.6L615.2,211.2z"/>
		<g>
			
				<rect x="675.6" y="247.6" transform="matrix(-0.3919 0.92 -0.92 -0.3919 1176.9131 -275.0796)" fill="#C74235" width="7.5" height="7.5"/>
			<path fill="#C74235" d="M673.8,253.6l3.3-7.8l7.8,3.3l-3.3,7.8L673.8,253.6z M677.6,247l-2.6,6.1l6.1,2.6l2.6-6.1L677.6,247z"/>
		</g>
		<g>
			
				<rect x="641.9" y="233.3" transform="matrix(-0.3919 0.92 -0.92 -0.3919 1116.8636 -264.0728)" fill="#C74235" width="7.5" height="7.5"/>
			<path fill="#C74235" d="M640.1,239.3l3.3-7.8l7.8,3.3l-3.3,7.8L640.1,239.3z M643.9,232.7l-2.6,6.1l6.1,2.6l2.6-6.1L643.9,232.7z
				"/>
		</g>
		<g>
			
				<rect x="608.2" y="218.9" transform="matrix(-0.3919 0.92 -0.92 -0.3919 1056.6266 -253.0317)" fill="#C74235" width="7.5" height="7.5"/>
			<path fill="#C74235" d="M606.4,224.9l3.3-7.8l7.8,3.3l-3.3,7.8L606.4,224.9z M610.2,218.3l-2.6,6.1l6.1,2.6l2.6-6.1L610.2,218.3z
				"/>
		</g>
		<g>
			
				<rect x="652.5" y="256" transform="matrix(-0.3919 0.92 -0.92 -0.3919 1152.4846 -242.2193)" fill="#C74235" width="7.5" height="7.5"/>
			<path fill="#C74235" d="M650.7,262l3.3-7.8l7.8,3.3l-3.3,7.8L650.7,262z M654.5,255.4l-2.6,6.1l6.1,2.6l2.6-6.1L654.5,255.4z"/>
		</g>
		
			<rect x="637.3" y="198.5" transform="matrix(-0.3919 0.92 -0.92 -0.3919 1078.4268 -308.1681)" fill="#C74235" width="7.5" height="7.5"/>
		
			<rect x="641.3" y="168.5" transform="matrix(-0.3919 0.92 -0.92 -0.3919 1077.9109 -310.9828)" fill="#C74235" width="0.9" height="64.5"/>
		<circle fill="#C74235" cx="672" cy="213.6" r="1.9"/>
		<circle fill="#C74235" cx="611.7" cy="187.9" r="1.9"/>
	</g>
	<path fill="#C74235" d="M441,508.6c-7.6,2.8-15.8,6.7-21,13.1c-2.4,3.1-4.7,6.5-6,10.2c-1.3,3.8-1.5,8-1.2,11.9
		c1.6,16.8,13.2,29.6,21.3,43.6c4.8,8.2,8.8,17.7,7.4,27.4c-0.5,3.4,4.8,4.9,5.3,1.4c2.3-16.5-7.1-30.6-15.8-43.7
		c-7.8-11.8-18.5-28.9-10-43c2.2-3.6,4.7-7,8.3-9.3c4.1-2.5,8.4-4.8,12.9-6.5C445.7,512.6,444.3,507.3,441,508.6L441,508.6z"/>
	<path fill="#C74235" d="M434.9,497.1l37.7-12.9l10,29.2l-37.7,12.9L434.9,497.1z M448.8,519.5l26.4-9l-6.6-19.4l-26.4,9
		L448.8,519.5z"/>
	<path fill="#C74235" d="M436.6,498l9.1,26.6l35.1-12l-9.1-26.6L436.6,498z M477,511.4l-29,9.9l-7.5-22l29-9.9L477,511.4z"/>
	<g>
		<path fill="#C74235" d="M443.7,296.6l-7.4-19.2l15.6-6l7.4,19.2L443.7,296.6z M452.9,287.7l-3.8-9.9l-6.3,2.4l3.8,9.9L452.9,287.7
			z"/>
		<path fill="#C74235" d="M441.9,361c-1.3,0.5-2.8-0.2-3.3-1.5c-0.5-1.3,0.2-2.8,1.5-3.3l35.9-13.8c1.3-0.5,2.8,0.2,3.3,1.5
			c0.5,1.3-0.2,2.8-1.5,3.3L441.9,361z"/>
		<path fill="#C74235" d="M438.2,351.3c-1.3,0.5-2.8-0.2-3.3-1.5c-0.5-1.3,0.2-2.8,1.5-3.3l35.9-13.8c1.3-0.5,2.8,0.2,3.3,1.5
			c0.5,1.3-0.2,2.8-1.5,3.3L438.2,351.3z"/>
		<path fill="#C74235" d="M441.7,395.9l-20.9-54.5l69.5-26.7l20.9,54.5L441.7,395.9z M504.5,366.3l-17.2-44.9l-59.9,23l17.2,44.9
			L504.5,366.3z"/>
		<path fill="#C74235" d="M433.4,399.4c-4.3,1.6-9.1-0.5-10.8-4.8L384,293.9c-1.6-4.3,0.5-9.1,4.8-10.8l76.5-29.4l0.3,0.3l29.1,13
			l33.4,87.1c1.6,4.3-0.5,9.1-4.8,10.8L433.4,399.4z M390.7,287.9c-1.6,0.6-2.5,2.5-1.8,4.1l38.6,100.7c0.6,1.7,2.5,2.5,4.1,1.8
			l89.9-34.5c1.7-0.6,2.5-2.5,1.8-4.1l-32.6-85.1L465,259.4l-3.3,1.3l13.8,36l-55.1,21.1l-13.8-36L390.7,287.9z M468.7,293.7
			l-11.9-31l-45.4,17.4l11.9,31L468.7,293.7z"/>
		<path fill="#C74235" d="M445.7,370.7c-1.3,0.5-2.8-0.2-3.3-1.5c-0.5-1.3,0.2-2.8,1.5-3.3l35.9-13.8c1.3-0.5,2.8,0.2,3.3,1.5
			c0.5,1.3-0.2,2.8-1.5,3.3L445.7,370.7z"/>
		<path fill="#C74235" d="M449.4,380.4c-1.3,0.5-2.8-0.2-3.3-1.5c-0.5-1.3,0.2-2.8,1.5-3.3l35.9-13.8c1.3-0.5,2.8,0.2,3.3,1.5
			c0.5,1.3-0.2,2.8-1.5,3.3L449.4,380.4z"/>
	</g>
	<path fill="#C74235" d="M639.5,618.2l-0.6-3.5H348.6l-0.7,3.5c-3.1,16.3-3.4,33-0.9,49.6l0.1,0.8l-43.6,77.7l48.2,11v82.1h65.5v59
		H570v-90.2l1-0.7c22.1-15.6,40.2-36.6,52.5-60.6c12.2-23.8,18.6-50.7,18.5-77.8l0-23.9C642,636.2,641.2,627.1,639.5,618.2z
		 M411.1,693.2c-16.9,0-29.4-11.7-30.4-28.2h8.5c0.9,12,9.3,19.7,21.9,19.7c12.5,0,20.9-7.6,21.9-19.7h8.5
		C440.4,681.4,428,693.2,411.1,693.2z"/>
	<path fill="#C74235" d="M621.9,616.3l29.8-71.6l-21.1-10.5l-35.2,82.1h-6.3l37.7-87.9l31.5-23.5V544l-30.2,72.3H621.9z
		 M634.7,529.9l17.8,8.9v-22.3L634.7,529.9z"/>
	<g>
		<path fill="#C74235" d="M699,330.3c-1.8,2.4-3.5,4.8-5.7,6.9c-2.3,2.2-5.2,4.1-8.2,5.4c-2.9,1.3-6.2,0.4-8.3-1.9
			c-0.7-0.8-1.4-1.6-2.1-2.4c-6.8-7.7-13.7-15.4-20.5-23.1c-2.1-2.3-4.2-4.7-6.2-7c0,0.7-0.1,1.4-0.1,2.1
			c6.9-6.1,13.7-12.2,20.6-18.4c1-0.9,1.9-1.7,2.9-2.6c-0.7,0-1.4-0.1-2.1-0.1c3.8,4.3,7.7,8.6,11.5,12.9
			c5.4,6.1,10.8,12.1,16.2,18.2c0.6,0.6,1.1,1.3,1.7,1.9C700.6,324.7,700.7,327.8,699,330.3c-1.1,1.6,1.4,3.3,2.5,1.7
			c2.1-2.9,2.4-6.9,0.5-10c-0.5-0.8-1.1-1.6-1.8-2.3c-2-2.3-4.1-4.6-6.1-6.8c-6.1-6.8-12.1-13.6-18.2-20.4c-1.5-1.7-3-3.4-4.5-5.1
			c-0.5-0.6-1.5-0.7-2.1-0.1c-6.9,6.1-13.7,12.2-20.6,18.4c-1,0.9-1.9,1.7-2.9,2.6c-0.6,0.5-0.7,1.5-0.1,2.1
			c5.6,6.3,11.2,12.6,16.8,18.8c3.3,3.8,6.7,7.5,10,11.3c0.7,0.8,1.4,1.6,2.1,2.4c2.4,2.6,5.8,3.9,9.3,3.4c1.8-0.3,3.4-1.2,4.9-2.1
			c1.8-1,3.6-2.1,5.3-3.5c3-2.4,5.2-5.5,7.5-8.6C702.6,330.4,700.1,328.7,699,330.3L699,330.3z"/>
		<path fill="#C74235" d="M639.3,293.8c4.8-4.3,9.7-8.6,14.5-12.9c0.7-0.6,1.4-1.2,2.1-1.9c-0.7,0-1.4-0.1-2.1-0.1
			c4,4.5,8,9,12,13.4c0-0.7,0.1-1.4,0.1-2.1c-4.9,4.4-9.8,8.7-14.7,13.1c-0.7,0.6-1.4,1.2-2.1,1.9c0.7,0,1.4,0.1,2.1,0.1
			c-3.9-4.5-7.9-9.1-11.8-13.6c-1.3-1.5-3.5,0.5-2.3,2c3.9,4.5,7.9,9.1,11.8,13.6c0.5,0.6,1.5,0.7,2.1,0.1
			c4.9-4.4,9.8-8.7,14.7-13.1c0.7-0.6,1.4-1.2,2.1-1.9c0.6-0.5,0.7-1.5,0.1-2.1c-4-4.5-8-9-12-13.4c-0.5-0.6-1.5-0.7-2.1-0.1
			c-4.8,4.3-9.7,8.6-14.5,12.9c-0.7,0.6-1.4,1.2-2.1,1.9C635.9,292.8,637.9,295.1,639.3,293.8L639.3,293.8z"/>
		<path fill="#C74235" d="M678.9,304.7l-3.4,3l3,3.4l0.8-0.7l0,0l2.5,2.8l-3.3,6.4l-9.2-10.4l1.9,0.1c0.6,0,1.2-0.4,1.2-1.1
			c0-0.6-0.4-1.2-1.1-1.2l-4.5-0.3c-0.6,0-1.2,0.4-1.2,1.1l-0.3,5.6c0,0.6,0.4,1.2,1.1,1.2c0.6,0,1.2-0.4,1.2-1.1l0.2-2.7l11.3,12.7
			l-6.7,2.6l-2.5-2.8c-0.2-0.2-0.4-0.3-0.6-0.3c0-0.1,0.1-0.2,0.1-0.4c0.1-1.2-0.9-2.3-2.1-2.4c-1.2-0.1-2.3,0.9-2.4,2.1
			c-0.1,1.2,0.9,2.3,2.1,2.4c0.4,0,0.8-0.1,1.1-0.2c0,0.1,0.1,0.2,0.2,0.3l3,3.4c0.3,0.4,0.8,0.5,1.2,0.3l8.2-3.2l1.7,1.9
			c0.1,0.2,0.3,0.2,0.5,0.3c-0.3,0.4-0.4,0.9-0.4,1.5c-0.1,1.9,1.3,3.5,3.2,3.6c1.9,0.1,3.5-1.3,3.6-3.2c0.1-1.9-1.3-3.5-3.2-3.6
			c-0.6,0-1.2,0.1-1.7,0.4c0-0.2-0.1-0.3-0.2-0.5l-2.3-2.6l0,0l-1.7-1.9l4.1-7.8c0.1-0.1,0.1-0.3,0.1-0.5c0-0.3-0.1-0.6-0.3-0.8
			l-3-3.3l0,0l0.8-0.7L678.9,304.7z"/>
	</g>
	<g>
		<path fill="#C74235" d="M561.7,73.2c1.5,7.2,3,14.4,4.6,21.6c3.3,15.7,6.7,31.5,10,47.2c3.3,15.5,6.6,31,9.9,46.5
			c1,4.9,2.1,9.8,3.1,14.7c0.4,2,2,5.8,0.2,7.5c-1.1,1-3.4,1.1-4.8,1.4c-3.5,0.7-7,1.5-10.5,2.2c-12.3,2.6-24.6,5.2-36.9,7.8
			c-16.3,3.4-32.6,6.9-48.8,10.3c-16.6,3.5-33.3,7-49.9,10.6c-13.3,2.8-26.7,5.7-40,8.5c-6.4,1.4-12.8,3-19.3,4.1
			c-2.8,0.5-3.6-1.5-4-3.7c-0.8-3.8-1.6-7.6-2.4-11.4c-3.1-14.4-6.1-28.8-9.2-43.2c-3.5-16.4-6.9-32.7-10.4-49.1c-2-9.5-4-19-6-28.5
			c-0.3-1.3-0.5-2.7,0.8-3.7c0.6-0.5,1.2-0.5,1.9-0.7c2.4-0.5,4.9-1,7.3-1.6c10.8-2.3,21.6-4.6,32.4-6.9c15.7-3.3,31.3-6.6,47-10
			c16.9-3.6,33.7-7.2,50.6-10.7c14.4-3.1,28.8-6.1,43.2-9.2c8.4-1.8,16.9-3.6,25.3-5.4C558,71.2,560.9,70.2,561.7,73.2
			c0.9,3.4,6.3,2.3,5.4-1.1c-1.2-4.5-5.2-7.1-9.8-6.3c-0.6,0.1-1.1,0.2-1.6,0.3c-3,0.6-6,1.3-8.9,1.9c-11.8,2.5-23.5,5-35.3,7.5
			c-16.4,3.5-32.8,6.9-49.1,10.4c-17,3.6-34,7.2-51.1,10.8c-13.9,3-27.9,5.9-41.8,8.9c-6.9,1.5-13.8,2.9-20.7,4.4
			c-5,1.1-7.9,5.3-6.9,10.3c0.6,3,1.3,6.1,1.9,9.1c3,14,5.9,27.9,8.9,41.9c3.6,16.9,7.2,33.8,10.7,50.7c2.2,10.4,4.4,20.8,6.6,31.2
			c0.1,0.7,0.3,1.4,0.5,2.1c1.3,4.2,5.5,6.5,9.7,5.7c1.8-0.3,3.6-0.8,5.3-1.1c10.1-2.1,20.2-4.3,30.3-6.4
			c15.6-3.3,31.1-6.6,46.7-9.9c17.3-3.7,34.5-7.3,51.8-11c15-3.2,30-6.4,45-9.5c9-1.9,18-3.8,27-5.7c2.7-0.6,5.3-0.9,7.3-3
			c3.2-3.4,2.2-7.2,1.3-11.1c-2.5-11.9-5.1-23.9-7.6-35.8c-3.6-17-7.2-34-10.8-50.9c-2.7-12.9-5.4-25.7-8.2-38.6
			c-0.4-1.9-0.8-3.9-1.2-5.8C566.4,68.6,561,69.8,561.7,73.2z"/>
		<path fill="#C74235" d="M539.1,87.4c4.1,19.5,8.3,39,12.4,58.5c2.8,13.4,5.7,26.8,8.5,40.2c0.9,4.4,1.9,8.8,2.8,13.2
			c0.3,1.7,0.9,3.3,1.1,5c0.4,3-2.3,3.3-4.4,3.7c-2.8,0.6-5.6,1.2-8.4,1.8c-10.3,2.2-20.6,4.4-30.8,6.5c-28.1,6-56.2,11.9-84.2,17.9
			c-11.4,2.4-22.9,4.9-34.3,7.3c-5.4,1.2-10.9,2.6-16.4,3.5c-2.6,0.4-3.4-1.3-3.9-3.4c-0.7-3.2-1.4-6.4-2-9.6
			c-2.6-12.3-5.2-24.6-7.8-36.8c-4.8-22.6-9.6-45.3-14.4-67.9c-0.4-2.1-0.2-3.9,2.2-4.6c1.8-0.5,3.7-0.8,5.5-1.2
			c8.9-1.9,17.8-3.8,26.8-5.7c27.7-5.9,55.4-11.7,83.1-17.6c19.7-4.2,39.3-8.3,59-12.5C535.7,85.3,538.3,84.5,539.1,87.4
			c0.9,3.4,6.3,2.3,5.4-1.1c-1.4-5.2-6.1-7.1-11-6.1c-2.5,0.5-5,1.1-7.4,1.6c-10,2.1-20,4.2-30,6.4c-14.1,3-28.1,6-42.2,8.9
			c-14.6,3.1-29.3,6.2-43.9,9.3c-11.8,2.5-23.6,5-35.4,7.5c-5.5,1.2-11.1,2.2-16.5,3.5c-4.9,1.2-7.5,5.5-6.5,10.4
			c0.6,2.8,1.2,5.6,1.8,8.3c2.6,12.2,5.2,24.4,7.8,36.6c3.1,14.5,6.1,29,9.2,43.4c1.9,8.9,3.8,17.7,5.6,26.6c1,4.9,4.7,8.6,10.1,7.7
			c1.4-0.2,2.8-0.6,4.2-0.9c8.6-1.8,17.2-3.6,25.8-5.5c13.4-2.8,26.8-5.7,40.2-8.5c14.7-3.1,29.5-6.2,44.2-9.4
			c12.8-2.7,25.6-5.4,38.4-8.1c7.4-1.6,14.7-3.1,22.1-4.7c3.3-0.7,6.4-1.9,7.9-5.4c1.2-2.8,0.3-5.7-0.3-8.6
			c-2.2-10.5-4.4-20.9-6.7-31.4c-3.1-14.7-6.2-29.3-9.3-44c-2.3-11-4.6-21.9-7-32.9c-0.3-1.6-0.7-3.3-1-4.9
			C543.7,82.8,538.4,83.9,539.1,87.4z"/>
		<path fill="#C74235" d="M566.3,142.2c3.2-0.5,4.2,4.2,1,4.9C564.2,147.8,563.2,143,566.3,142.2c3.4-0.9,2.3-6.3-1.1-5.4
			c-4.2,1.1-7.1,5.1-6.2,9.5c0.9,4.3,5.2,7,9.5,6.2c4.2-0.9,6.9-5,6.2-9.2c-0.8-4.6-5.1-7.1-9.5-6.5
			C561.7,137.4,562.8,142.7,566.3,142.2z"/>
		<path fill="#C74235" d="M571.5,164c1.9-0.3,2.6,2.6,0.6,3C570.2,167.4,569.6,164.5,571.5,164c2.1-0.6,1.4-3.8-0.7-3.3
			c-2.6,0.7-4.3,3.1-3.8,5.8c0.6,2.6,3.2,4.3,5.8,3.8c2.5-0.5,4.2-3.1,3.8-5.6c-0.5-2.8-3.1-4.4-5.8-3.9
			C568.6,161,569.3,164.3,571.5,164z"/>
		<path fill="#C74235" d="M576.1,184.8c1.9-0.3,2.6,2.6,0.6,3C574.8,188.2,574.2,185.3,576.1,184.8c2.1-0.6,1.4-3.8-0.7-3.3
			c-2.6,0.7-4.3,3.1-3.8,5.8c0.6,2.6,3.2,4.3,5.8,3.8c2.5-0.5,4.2-3.1,3.8-5.6c-0.5-2.8-3.1-4.4-5.8-3.9
			C573.2,181.8,573.9,185.1,576.1,184.8z"/>
		<path fill="#C74235" d="M562.3,122.3c1.9-0.3,2.6,2.6,0.6,3C561,125.8,560.4,122.9,562.3,122.3c2.1-0.6,1.4-3.8-0.7-3.3
			c-2.6,0.7-4.3,3.1-3.8,5.8c0.6,2.6,3.2,4.3,5.8,3.8c2.5-0.5,4.2-3.1,3.8-5.6c-0.5-2.8-3.1-4.4-5.8-3.9
			C559.5,119.4,560.2,122.7,562.3,122.3z"/>
		<path fill="#C74235" d="M557.4,101.5c1.9-0.3,2.6,2.6,0.6,3C556.1,105,555.5,102.1,557.4,101.5c2.1-0.6,1.4-3.8-0.7-3.3
			c-2.6,0.7-4.3,3.1-3.8,5.8c0.6,2.6,3.2,4.3,5.8,3.8c2.5-0.5,4.2-3.1,3.8-5.6c-0.5-2.8-3.1-4.4-5.8-3.9
			C554.6,98.6,555.3,101.9,557.4,101.5z"/>
	</g>
	<g>
		<g>
			<g>
				<path fill="#C74235" d="M331.8,350.4c0.2,10.5-7.5,19.8-18.2,21.3l-10.9,1.5c-8.4,1.2-14.3,9-13.1,17.4
					c1.1,7.5,7.4,13,14.8,13.2l0.7,5.7c-10.5,0.2-19.7-7.5-21.2-18.2c-1.6-11.6,6.5-22.3,18-23.9l10.9-1.5c7.5-1.1,13-7.4,13.2-14.8
					L331.8,350.4z"/>
				<path fill="#C74235" d="M316.3,402.3c11.6-1.6,22.3,6.5,23.9,18s-6.5,22.3-18,23.9l-10.9,1.5c-8.4,1.2-14.3,9-13.1,17.4
					c1.1,7.5,7.4,13,14.8,13.2l0.8,5.8c-10.5,0.2-19.8-7.5-21.3-18.2c-1.6-11.6,6.5-22.3,18-23.9l10.9-1.5c8.4-1.2,14.3-9,13.1-17.4
					s-9-14.3-17.4-13.1l-12,1.7c-0.1-1-0.6-1.9-0.8-2.8c-0.1-1,0.1-2-0.1-2.9L316.3,402.3z"/>
			</g>
			<g>
				<path fill="#C74235" d="M283.9,318.6c2.4,16,14.4,29,30.2,32.6c15.7,3.6,32.7-3.6,41.2-17.3c4.9-7.8,6.8-17,5.6-26.1
					c-0.5-3.5-5.9-2.7-5.4,0.8c1.8,13.7-5,27.6-17.3,34.1c-12.4,6.5-27.7,4.6-38.2-4.7c-5.8-5.2-9.5-12.4-10.7-20.1
					C288.8,314.3,283.4,315.1,283.9,318.6L283.9,318.6z"/>
				<path fill="#C74235" d="M289.4,317.8c-1.8-13.1-3.7-26.1-5.5-39.2c-0.3-1.9-0.5-3.7-0.8-5.6c-0.5-3.5-5.9-2.7-5.4,0.8
					c1.8,13.1,3.7,26.1,5.5,39.2c0.3,1.9,0.5,3.7,0.8,5.6C284.5,322,289.9,321.3,289.4,317.8L289.4,317.8z"/>
				<path fill="#C74235" d="M283,272.9c-1.9-14,5.3-28.2,18.1-34.5c12.8-6.3,28.8-3.8,38.8,6.5c2.6,2.7,4.8,5.9,6.4,9.3
					c0.9,1.8,1.6,3.8,2.1,5.7c0.4,1.6,0.3,4.7,1.9,5.6c-0.4-0.6-0.7-1.2-1.1-1.8c1.8,13.1,3.7,26.1,5.5,39.2
					c0.3,1.9,0.5,3.7,0.8,5.6c0.5,3.5,5.9,2.7,5.4-0.8c-1.9-13.4-3.8-26.7-5.7-40.1c-0.2-1.7-0.1-5.6-1.8-6.6
					c0.4,0.6,0.7,1.2,1.1,1.8c-2.4-16-14.4-29-30.2-32.6c-15.7-3.6-32.7,3.6-41.2,17.3c-4.9,7.8-6.8,17-5.6,26.1
					C278.1,277.1,283.5,276.4,283,272.9L283,272.9z"/>
			</g>
		</g>
		<circle fill="#C74235" cx="325.5" cy="322.8" r="4.2"/>
	</g>
</g>
<rect x="-837.3" y="-180.6" fill="#3C98CA" width="112.5" height="166.5"/>
<rect x="-693.3" y="-183.6" fill="#E3A719" width="105" height="165"/>
<rect x="-577.8" y="-179.1" fill="#389545" width="94.5" height="159"/>
<rect x="-446" y="-216.6" fill="#C74235" width="122.2" height="199.5"/>
</svg>
