<?xml version="1.0" encoding="utf-8"?>
<!-- Generator: Adobe Illustrator 16.0.0, SVG Export Plug-In . SVG Version: 6.00 Build 0)  -->
<!DOCTYPE svg PUBLIC "-//W3C//DTD SVG 1.1//EN" "http://www.w3.org/Graphics/SVG/1.1/DTD/svg11.dtd">
<svg version="1.1" id="Capa_1" xmlns="http://www.w3.org/2000/svg" xmlns:xlink="http://www.w3.org/1999/xlink" x="0px" y="0px"
	 width="200px" height="200px" viewBox="0 0 200 200" enable-background="new 0 0 200 200" xml:space="preserve">
<g>
	<polygon fill="#FFFFFF" stroke="#1A1413" stroke-width="4.1421" stroke-miterlimit="10" points="66,144.741 38.257,96.688 
		66,48.635 121.486,48.635 149.23,96.688 121.486,144.741 	"/>
	<g>
		<g>
			<path fill="#1A1413" d="M85.936,80.419h-3.823V65.795c-0.754,0.335-1.591,0.502-2.456,0.502c-0.893,0-1.73-0.167-2.484-0.502
				v14.624h-3.824V60.018h3.824c0,1.34,1.116,2.456,2.484,2.456c1.339,0,2.456-1.116,2.456-2.456h3.823V80.419z"/>
			<path fill="#1A1413" d="M97.993,60.018h3.292L90.932,80.419h-3.321L97.993,60.018z"/>
			<path fill="#1A1413" d="M115.52,60.018v14.4c0,3.461-2.818,6.28-6.279,6.28c-3.377,0-6.307-2.651-6.307-5.973V60.018h3.822v14.4
				c0,1.368,1.117,2.456,2.484,2.456c1.34,0,2.457-1.088,2.457-2.456v-14.4H115.52z"/>
		</g>
		<g>
			<path fill="#1A1413" d="M64.836,98.111c-3.433,0-6.251-2.818-6.251-6.279c0-3.46,2.818-6.279,6.251-6.279
				c3.46,0,6.279,2.819,6.279,6.279C71.116,95.293,68.297,98.111,64.836,98.111z M58.864,101.963h11.973v3.461H58.864V101.963z
				 M64.864,94.316c1.312,0,2.428-1.061,2.428-2.484c0-1.367-1.116-2.483-2.428-2.483c-1.34,0-2.456,1.088-2.456,2.512
				C62.408,93.228,63.524,94.316,64.864,94.316z"/>
			<path fill="#1A1413" d="M83.201,85.86h3.293l-10.354,20.4h-3.321L83.201,85.86z"/>
			<path fill="#1A1413" d="M94.449,93.73c1.339,0,2.456-1.089,2.456-2.456V85.86h3.823v5.246c0,1.759-0.837,3.377-2.177,4.521
				c1.34,1.061,2.177,2.567,2.177,4.214v6.419h-3.823v-6.419c0-1.367-1.117-2.456-2.456-2.456h-2.484v8.875h-3.824v-20.4h3.852v7.87
				H94.449z"/>
			<path fill="#1A1413" d="M112.785,85.86h3.293l-10.354,20.4h-3.32L112.785,85.86z"/>
			<path fill="#1A1413" d="M124.033,93.73c1.34,0,2.457-1.089,2.457-2.456V85.86h3.822v5.246c0,1.759-0.836,3.377-2.176,4.521
				c1.34,1.061,2.176,2.567,2.176,4.214v6.419h-3.822v-6.419c0-1.367-1.117-2.456-2.457-2.456h-2.484v8.875h-3.822v-20.4h3.852v7.87
				H124.033z"/>
		</g>
		<g>
			<path fill="#1A1413" d="M85.936,132.104h-3.823v-8.847c-0.754,0.307-1.591,0.446-2.456,0.446c-0.893,0-1.73-0.195-2.484-0.502
				v8.902h-3.824V117.76c0-3.488,2.819-6.363,6.308-6.363c3.46,0,6.279,2.875,6.279,6.363V132.104z M82.112,117.564
				c0-1.368-1.117-2.484-2.456-2.484c-1.368,0-2.484,1.116-2.484,2.484c0,1.367,1.116,2.456,2.484,2.456
				C80.996,120.021,82.112,118.932,82.112,117.564z"/>
			<path fill="#1A1413" d="M97.993,111.703h3.292l-10.353,20.401h-3.321L97.993,111.703z"/>
			<path fill="#1A1413" d="M115.52,132.104h-3.822v-8.847c-0.754,0.307-1.592,0.446-2.457,0.446c-0.893,0-1.73-0.195-2.484-0.502
				v8.902h-3.822V117.76c0-3.488,2.818-6.363,6.307-6.363c3.461,0,6.279,2.875,6.279,6.363V132.104z M111.697,117.564
				c0-1.368-1.117-2.484-2.457-2.484c-1.367,0-2.484,1.116-2.484,2.484c0,1.367,1.117,2.456,2.484,2.456
				C110.58,120.021,111.697,118.932,111.697,117.564z"/>
		</g>
	</g>
	
		<line fill="none" stroke="#000000" stroke-width="2.071" stroke-miterlimit="10" x1="121.486" y1="144.741" x2="133.912" y2="151.646"/>
	
		<line fill="none" stroke="#1A1413" stroke-width="2.071" stroke-miterlimit="10" x1="73.927" y1="144.741" x2="86.353" y2="151.646"/>
	
		<line fill="none" stroke="#1A1413" stroke-width="2.071" stroke-miterlimit="10" x1="81.853" y1="144.741" x2="94.281" y2="151.646"/>
	
		<line fill="none" stroke="#1A1413" stroke-width="2.071" stroke-miterlimit="10" x1="89.78" y1="144.741" x2="102.207" y2="151.646"/>
	
		<line fill="none" stroke="#1A1413" stroke-width="2.071" stroke-miterlimit="10" x1="97.707" y1="144.741" x2="110.133" y2="151.646"/>
	
		<line fill="none" stroke="#1A1413" stroke-width="2.071" stroke-miterlimit="10" x1="105.633" y1="144.741" x2="118.059" y2="151.646"/>
	
		<line fill="none" stroke="#1A1413" stroke-width="2.071" stroke-miterlimit="10" x1="113.561" y1="144.741" x2="125.986" y2="151.646"/>
	
		<line fill="none" stroke="#1A1413" stroke-width="4.1421" stroke-miterlimit="10" x1="133.912" y1="151.646" x2="121.486" y2="144.741"/>
	
		<line fill="none" stroke="#1A1413" stroke-width="2.7614" stroke-miterlimit="10" x1="124.262" y1="139.937" x2="136.688" y2="146.84"/>
	
		<line fill="none" stroke="#1A1413" stroke-width="2.7614" stroke-miterlimit="10" x1="127.035" y1="135.13" x2="139.461" y2="142.035"/>
	
		<line fill="none" stroke="#1A1413" stroke-width="2.7614" stroke-miterlimit="10" x1="129.811" y1="130.325" x2="142.236" y2="137.23"/>
	
		<line fill="none" stroke="#1A1413" stroke-width="2.7614" stroke-miterlimit="10" x1="132.584" y1="125.521" x2="145.01" y2="132.424"/>
	
		<line fill="none" stroke="#1A1413" stroke-width="2.7614" stroke-miterlimit="10" x1="135.357" y1="120.716" x2="147.785" y2="127.619"/>
	
		<line fill="none" stroke="#1A1413" stroke-width="2.7614" stroke-miterlimit="10" x1="138.133" y1="115.909" x2="150.561" y2="122.814"/>
	
		<line fill="none" stroke="#1A1413" stroke-width="2.7614" stroke-miterlimit="10" x1="140.906" y1="111.104" x2="153.332" y2="118.01"/>
	
		<line fill="none" stroke="#1A1413" stroke-width="2.7614" stroke-miterlimit="10" x1="143.68" y1="106.3" x2="156.109" y2="113.203"/>
	
		<line fill="none" stroke="#1A1413" stroke-width="2.7614" stroke-miterlimit="10" x1="146.455" y1="101.494" x2="158.881" y2="108.398"/>
	
		<line fill="none" stroke="#1A1413" stroke-width="4.1421" stroke-miterlimit="10" x1="149.23" y1="96.688" x2="161.656" y2="103.593"/>
	<g>
		
			<line fill="none" stroke="#1A1413" stroke-width="2.071" stroke-miterlimit="10" x1="145.297" y1="89.369" x2="157.723" y2="96.274"/>
		
			<line fill="none" stroke="#1A1413" stroke-width="2.071" stroke-miterlimit="10" x1="141.459" y1="82.686" x2="153.885" y2="89.591"/>
		
			<line fill="none" stroke="#1A1413" stroke-width="2.071" stroke-miterlimit="10" x1="137.622" y1="76.003" x2="150.049" y2="82.908"/>
		
			<line fill="none" stroke="#1A1413" stroke-width="2.071" stroke-miterlimit="10" x1="133.784" y1="69.319" x2="146.211" y2="76.225"/>
		
			<line fill="none" stroke="#1A1413" stroke-width="2.071" stroke-miterlimit="10" x1="129.947" y1="62.636" x2="142.374" y2="69.542"/>
		
			<line fill="none" stroke="#1A1413" stroke-width="2.071" stroke-miterlimit="10" x1="126.109" y1="55.953" x2="138.537" y2="62.858"/>
	</g>
	<polyline fill="none" stroke="#1A1413" stroke-width="4.1421" stroke-miterlimit="10" points="65.784,144.995 77.736,151.646 
		78.069,151.646 133.977,151.646 161.742,103.593 134.668,56.92 133.912,55.539 121.639,48.354 	"/>
</g>
</svg>
